<?xml version="1.0" encoding="UTF-8" standalone="no"?>
<!-- Created with Inkscape (http://www.inkscape.org/) -->

<svg
   xmlns:dc="http://purl.org/dc/elements/1.1/"
   xmlns:cc="http://creativecommons.org/ns#"
   xmlns:rdf="http://www.w3.org/1999/02/22-rdf-syntax-ns#"
   xmlns:svg="http://www.w3.org/2000/svg"
   xmlns="http://www.w3.org/2000/svg"
   xmlns:sodipodi="http://sodipodi.sourceforge.net/DTD/sodipodi-0.dtd"
   xmlns:inkscape="http://www.inkscape.org/namespaces/inkscape"
   width="57.477436mm"
   height="58.714016mm"
   viewBox="0 0 57.477436 58.714016"
   version="1.1"
   id="svg863"
   inkscape:export-filename="C:\Users\andre\logo_avp.png"
   inkscape:export-xdpi="238.38699"
   inkscape:export-ydpi="238.38699"
   inkscape:version="0.92.4 (5da689c313, 2019-01-14)"
   sodipodi:docname="logo_avp_blu.svg">
  <defs
     id="defs857" />
  <sodipodi:namedview
     id="base"
     pagecolor="#ffffff"
     bordercolor="#666666"
     borderopacity="1.0"
     inkscape:pageopacity="0.0"
     inkscape:pageshadow="2"
     inkscape:zoom="3.2018679"
     inkscape:cx="58.44481"
     inkscape:cy="120.30411"
     inkscape:document-units="mm"
     inkscape:current-layer="layer1"
     showgrid="false"
     fit-margin-top="0"
     fit-margin-left="0"
     fit-margin-right="0"
     fit-margin-bottom="0"
     inkscape:pagecheckerboard="true"
     inkscape:window-width="1920"
     inkscape:window-height="1001"
     inkscape:window-x="-9"
     inkscape:window-y="-9"
     inkscape:window-maximized="1" />
  <metadata
     id="metadata860">
    <rdf:RDF>
      <cc:Work
         rdf:about="">
        <dc:format>image/svg+xml</dc:format>
        <dc:type
           rdf:resource="http://purl.org/dc/dcmitype/StillImage" />
        <dc:title></dc:title>
      </cc:Work>
    </rdf:RDF>
  </metadata>
  <g
     inkscape:label="Layer 1"
     inkscape:groupmode="layer"
     id="layer1"
     style="display:inline"
     transform="translate(-64.751044,-109.17785)">
    <path
       style="fill:#0f9aff;fill-opacity:1;stroke-width:0.26458332"
       d="m 92.447352,167.57361 c -0.232934,-0.1819 -0.697518,-0.98557 -1.032407,-1.78594 -1.707024,-4.07969 -7.245797,-10.0875 -13.172065,-14.2875 -6.570391,-4.6565 -9.443365,-7.55574 -11.40512,-11.50937 -1.535341,-3.09427 -1.902243,-4.73409 -2.04238,-9.12813 -0.108838,-3.41264 -0.04894,-4.16144 0.542198,-6.77819 0.830746,-3.67741 1.771117,-6.07954 3.27339,-8.36171 4.919967,-7.47414 13.925694,-8.72056 20.523022,-2.84045 0.796586,0.70998 2.106182,2.25243 2.910214,3.42767 l 1.461878,2.13678 0.835684,-1.35816 c 1.796413,-2.91954 5.248262,-5.86053 8.142564,-6.93749 2.01281,-0.74897 6.3582,-0.81287 8.57638,-0.12613 1.60655,0.49738 4.76707,2.58245 4.66441,3.04131 1.04317,0.46359 2.4937,2.53241 3.2327,3.77345 3.57616,6.14982 4.33189,15.81231 1.70987,21.86171 -1.61204,3.71923 -4.42373,6.85309 -9.74976,10.86693 -2.61666,1.97199 -4.14127,3.13494 -5.27707,4.07641 -1.21805,1.00965 -1.98896,1.76458 -3.18007,2.98946 -2.837432,2.91787 -5.527681,6.43577 -6.554204,8.57058 -0.469021,0.9754 -1.027954,1.98181 -1.242068,2.23648 -0.453403,0.53926 -1.607815,0.60814 -2.217166,0.13229 z m 2.324616,-4.10104 c 1.315053,-2.26524 3.638214,-5.17207 6.500832,-8.13409 2.11013,-2.1834 2.89802,-3.19153 3.14814,-4.02808 -0.0811,-0.46492 1.1345,-3.59988 1.36769,-3.90429 0.2011,-0.26251 -0.58256,2.30016 -0.5575,1.99289 0.0586,-1.19733 1.03552,-3.42849 2.2443,-5.13258 1.79274,-2.52734 2.16994,-3.36825 2.58303,-5.75852 0.55811,-3.22938 0.4608,-4.92086 -0.31946,-5.55267 -0.79407,-0.64299 -1.12243,-0.6349 -1.99201,0.0491 -0.90573,0.71244 -1.67845,2.24096 -2.31956,4.58831 -0.67046,2.45479 -1.83892,4.10956 -4.49577,6.36689 -4.038265,3.43101 -5.584461,5.13617 -6.817221,7.51808 -0.732761,1.41582 -1.152075,2.57178 -1.151713,3.175 5.29e-4,0.98278 0.92429,10.07671 1.023522,10.07671 0.03086,0 0.384437,-0.56555 0.78572,-1.25677 z m -1.792309,-2.51355 c -0.27845,-5.18194 -0.575656,-6.81758 -1.633802,-8.99143 -1.199172,-2.46357 -2.568905,-4.23948 -4.396958,-5.70082 -4.870814,-3.89373 -6.64655,-5.99364 -7.15721,-8.46384 -0.566321,-2.73944 -2.209045,-5.35276 -3.36473,-5.35276 -0.192516,0 -0.642274,0.29224 -0.999462,0.64943 -0.783312,0.78332 -0.854629,2.28153 -0.267428,5.61811 0.419415,2.38318 0.738547,3.13498 2.000483,4.71267 1.065754,1.33242 2.139677,3.46324 2.88095,5.71624 0.552466,1.67915 0.681899,1.8364 3.309197,4.0204 3.135371,2.60635 6.767233,6.05581 6.473183,6.53159 -0.120436,0.19487 -0.1796,0.111 0,0 0.308435,-0.19062 1.004078,1.34668 2.263988,3.50937 0.40268,0.69123 0.810451,1.25677 0.906158,1.25677 0.0957,0 0.08924,-1.57757 -0.01437,-3.50573 z m 13.410201,-10.18645 c 0.47173,-0.40019 2.09479,-1.64529 3.6068,-2.7669 1.51201,-1.12161 3.37902,-2.60989 4.1489,-3.30729 l 1.39979,-1.268 0.0103,-1.98438 c 0.006,-1.0914 -0.12934,-3.51395 -0.29997,-5.38344 -0.17062,-1.86948 -0.23888,-4.20024 -0.15167,-5.17945 0.12171,-1.36672 0.0437,-2.11385 -0.33558,-3.21552 -0.93062,-2.70283 -3.4897,-7.33852 -5.4429,-9.85965 -0.89702,-1.15784 -2.22722,0.53535 -1.87897,2.3917 0.25191,1.34277 0.81974,2.39116 1.98617,3.66709 1.27667,1.39652 1.99857,3.29167 1.95939,5.14386 -0.0169,0.80036 -0.0495,2.97729 -0.0723,4.83762 -0.0448,3.64933 -0.52036,6.77437 -1.24377,8.17328 -0.24932,0.48214 -0.9262,1.50295 -1.50417,2.26846 -0.57797,0.76552 -1.57192,2.6704 -2.20876,4.23306 -0.63686,1.56266 -1.15792,2.87179 -1.15792,2.90918 0,0.21947 0.43195,-0.021 1.18471,-0.65962 z m -27.244551,-1.38396 c -0.577326,-1.819 -1.55447,-3.75538 -2.624781,-5.20147 -1.582082,-2.13753 -1.851359,-2.82411 -2.397596,-6.11323 -0.480867,-2.8955 -0.4197,-3.84001 0.427243,-6.59728 0.27622,-0.89925 0.670752,-2.74472 0.876736,-4.10104 0.332552,-2.18971 0.329317,-2.50093 -0.02887,-2.77734 -0.273992,-0.21145 -0.342364,-0.50849 -0.213149,-0.92605 0.34186,-1.1047 1.237072,-2.71442 1.989089,-3.57666 0.474993,-0.54461 0.688215,-1.03258 0.599474,-1.37192 -0.187726,-0.71787 -1.042122,-1.45014 -1.491005,-1.27789 -0.806532,0.3095 -4.710929,6.96963 -5.693961,9.71277 -0.421899,1.17731 -0.552374,2.44049 -0.68323,6.61459 -0.08896,2.83765 -0.234429,5.71916 -0.323268,6.40333 l -0.161524,1.24397 2.744945,2.74889 c 2.447469,2.45099 6.351165,5.67595 6.929963,5.72504 0.118947,0.0101 0.141417,-0.21748 0.04993,-0.50571 z m 38.713961,-9.19938 c 2.39034,-3.97793 3.15861,-8.6047 2.3281,-14.02064 -0.80532,-5.25167 -2.31168,-8.58984 -5.17779,-11.47428 -3.62131,-3.64448 -8.16352,-4.5419 -12.6326,-2.49589 -0.80377,0.36798 -2.852913,1.94131 -3.005453,1.84704 -0.26453,0.23906 0.413091,-0.31874 0,0 -1.666486,1.27088 -3.67805,3.94017 -4.932659,6.54551 l -0.978246,2.03144 -1.277562,-2.59511 c -3.141757,-6.38186 -8.498922,-9.86053 -13.865091,-9.00328 -2.441495,0.39003 -4.112248,1.32908 -6.356864,3.57288 -3.613275,3.61197 -5.407941,8.75067 -5.449719,15.6043 -0.02219,3.6394 0.307683,5.50102 1.441955,8.1377 l 0.589021,1.36922 0.202884,-0.917 c 0.111586,-0.50435 0.259842,-3.06182 0.329457,-5.68327 0.141566,-5.33089 0.182764,-5.50662 2.262767,-9.65151 1.732488,-3.45238 3.68754,-6.37614 4.584622,-6.85624 0.599115,-0.32064 0.770478,-0.30948 1.379894,0.0898 0.63487,0.41599 0.736255,0.41934 1.157308,0.0383 0.533497,-0.48281 1.20303,-0.56411 0.923714,-0.11217 -0.116846,0.18906 -0.07259,0.23365 0.116134,0.11701 0.167707,-0.10364 0.632587,-0.0123 1.033068,0.20295 0.400481,0.21527 0.906741,0.45952 1.125022,0.54277 0.218282,0.0832 0.599884,0.29696 0.848005,0.47492 0.373251,0.2677 0.558895,0.22231 1.075386,-0.2629 0.763108,-0.71691 1.439559,-0.74522 2.160598,-0.0904 0.300421,0.27281 1.162135,0.69606 1.91492,0.94054 1.59517,0.51806 1.788753,0.70995 2.175341,2.15628 0.255778,0.95694 0.472921,1.17443 1.915116,1.91823 0.894646,0.4614 1.911297,0.83892 2.259227,0.83892 0.347929,0 0.708176,0.19695 0.80055,0.43767 0.266456,0.69438 -0.416312,2.80246 -1.159608,3.58035 -0.373518,0.3909 -0.81638,0.98621 -0.984137,1.32292 -0.237759,0.4772 -0.60162,0.64859 -1.650157,0.7773 -1.373129,0.16855 -4.029552,0.93975 -4.402795,1.27819 -0.113811,0.1032 0.302907,0.33995 0.926042,0.52612 1.875984,0.56047 2.995854,1.25093 4.143454,2.55468 0.599808,0.68141 1.090557,1.12137 1.090557,0.97769 0,-0.59706 2.050172,-2.30551 3.602358,-3.00193 l 1.667039,-0.74795 -0.782614,-0.8378 c -0.864023,-0.92493 -0.988999,-1.60408 -0.387104,-2.10361 0.302519,-0.25107 0.356788,-0.65772 0.230815,-1.72957 -0.09675,-0.82315 -0.03888,-1.76223 0.140245,-2.27608 0.264488,-0.75871 0.232817,-0.97231 -0.238736,-1.61012 l -0.543677,-0.73536 h 1.206849 c 1.571472,0 1.712815,-0.40854 0.779526,-2.25315 -0.404087,-0.79867 -0.653811,-1.53302 -0.554939,-1.63189 0.09887,-0.0989 1.279326,0.20578 2.623237,0.67701 3.39319,1.1898 3.47567,1.21262 3.2885,0.90977 -0.31964,-0.51719 0.36738,-2.17914 1.12332,-2.71742 0.90809,-0.64662 1.28255,-0.67361 1.87736,-0.13531 0.40315,0.36484 0.52933,0.35847 1.26524,-0.0639 l 0.81744,-0.46914 0.9508,0.92155 c 1.46034,1.41542 4.34914,6.42489 5.55974,9.64116 0.50195,1.33355 0.60761,2.14648 0.62134,4.7802 0.009,1.74537 0.1391,4.54262 0.28889,6.21611 0.14979,1.67349 0.27336,3.3106 0.27461,3.63802 10e-4,0.32742 0.0481,0.59531 0.1042,0.59531 0.0561,0 0.58486,-0.80367 1.1751,-1.78594 z m -11.22356,-19.18229 c -0.10594,-0.32742 -0.1813,-1.22712 -0.16748,-1.99934 0.0296,-1.65467 -0.50304,-2.11382 -1.30429,-1.12432 -0.89971,1.11109 -0.59008,2.33938 0.82768,3.28339 0.841,0.55997 0.87426,0.55172 0.64409,-0.15973 z m -27.148061,-2.89719 c 0.422165,-0.42216 0.401957,-0.74083 -0.04698,-0.74083 -0.448741,0 -1.018213,0.64578 -0.779754,0.88424 0.252739,0.25274 0.46791,0.21542 0.826732,-0.14341 z"
       id="path826"
       inkscape:connector-curvature="0"
       sodipodi:nodetypes="ccscssscccscsccscscscccscsccccccsccsccsscsscsssscccsscsccccccccscccccsccccsssccccccsccsccccsccccscssccccssscccsccccccsccscccccccsscccccccsccccsccccccscscccccccsscc" />
    <path
       style="opacity:1;fill:none;fill-opacity:1;fill-rule:nonzero;stroke:none;stroke-width:0.94433069;stroke-linejoin:round;stroke-miterlimit:4;stroke-dasharray:none;stroke-dashoffset:0;stroke-opacity:1"
       d="m 349.22587,618.38377 c -7.12116,-11.16475 -4.99797,-15.77578 -6.59049,-16.09556 -0.65851,-0.13224 -6.4681,-5.04048 -6.49237,-5.72037 -0.0451,-1.26433 -1.80575,0.96084 -5.82825,-3.45726 -4.11429,-4.51892 -7.83714,-7.98603 -16.87289,-15.71379 -7.22235,-6.17687 -8.74402,-7.94095 -10.07061,-11.67488 -2.4363,-6.8574 -3.18739,-8.72646 -5.15073,-12.81729 -2.26593,-4.7213 -4.30126,-8.04281 -7.53591,-12.29803 -3.81521,-5.01896 -5.12651,-8.46504 -6.64462,-17.46199 -1.55726,-9.22895 -1.65293,-14.52606 -0.32019,-17.72832 0.62347,-1.49806 2.69044,-3.60207 4.21327,-4.28877 1.16064,-0.52338 1.23641,-0.519 2.62129,0.1514 3.96824,1.921 8.31545,9.52183 10.63414,18.59317 1.33458,5.22122 3.04154,8.94921 5.78609,12.63678 3.63489,4.88383 10.13205,11.11884 19.36134,18.58014 8.69428,7.02878 13.56171,12.9676 18.20199,22.2085 3.27166,6.51536 4.59293,11.17032 5.50845,19.4069 1.16273,10.46055 2.00936,28.51477 1.33717,28.51477 -0.19205,0 -1.16301,-1.27593 -2.15768,-2.8354 z"
       id="path1414"
       inkscape:connector-curvature="0"
       transform="scale(0.26458333)"
       sodipodi:nodetypes="sccsssssscccsssssss" />
    <path
       style="opacity:1;fill:none;fill-opacity:1;fill-rule:nonzero;stroke:none;stroke-width:0.94433069;stroke-linejoin:round;stroke-miterlimit:4;stroke-dasharray:none;stroke-dashoffset:0;stroke-opacity:1"
       d="m 354.4954,616.12967 c -1.33376,-11.76766 -2.57479,-24.80351 -2.75637,-28.95313 -0.17467,-3.99168 -0.14024,-4.34939 0.64645,-6.71483 1.79436,-5.39535 6.1401,-13.21087 9.81184,-17.64595 3.59984,-4.34822 9.50686,-10.08451 17.73315,-17.22063 11.73412,-10.17906 15.44243,-15.17688 18.3909,-24.7861 3.47627,-11.32933 5.99633,-16.06925 9.93259,-18.68199 2.22016,-1.47366 3.65378,-1.53713 5.44303,-0.241 1.81624,1.31568 2.55336,2.52611 3.10213,5.09407 1.22736,5.74346 -1.16543,21.51946 -4.22159,27.83348 -0.6813,1.40755 -3.01045,5.21996 -5.1759,8.47202 -6.05374,9.09146 -9.42044,16.34441 -10.20493,21.98465 -0.22267,1.60097 -0.5064,2.47921 -0.91218,2.82356 -0.32395,0.2749 -0.9954,1.62905 -1.49213,3.00923 -1.52604,4.24019 -3.26257,6.51385 -12.3956,16.22965 -12.11836,12.89163 -18.66037,21.08101 -24.21576,30.31362 -1.38223,2.29715 -2.624,4.24515 -2.75949,4.32889 -0.13549,0.0837 -0.55225,-2.54675 -0.92614,-5.84554 z"
       id="path1416"
       inkscape:connector-curvature="0"
       transform="scale(0.26458333)" />
    <path
       style="opacity:1;fill:none;fill-opacity:1;fill-rule:nonzero;stroke:none;stroke-width:0.94433069;stroke-linejoin:round;stroke-miterlimit:4;stroke-dasharray:none;stroke-dashoffset:0;stroke-opacity:1"
       d="m 397.85669,572.23893 c 0,-0.14228 1.25024,-3.35487 2.77831,-7.13909 3.12022,-7.72716 6.7054,-15.02477 9.10079,-18.5246 6.47349,-9.45822 7.23347,-10.85423 8.41621,-15.45973 1.98489,-7.72907 2.76488,-17.81893 2.83685,-36.69733 0.0417,-10.94578 0.0321,-11.12625 -0.75436,-14.14169 -1.13284,-4.34354 -3.32581,-8.35177 -6.90812,-12.62644 -4.65617,-5.55609 -6.72497,-9.70716 -7.21331,-14.47364 -0.37927,-3.70188 1.21429,-7.80074 3.44418,-8.85889 1.57126,-0.74561 2.60509,-0.22124 4.44126,2.25269 7.58619,10.22105 16.68781,27.06258 19.95605,36.9264 l 0.87644,2.64516 0.0559,11.08727 c 0.042,8.32432 0.22339,13.03303 0.72792,18.89522 0.36959,4.29437 0.75593,11.88369 0.85852,16.86516 l 0.18653,9.05721 -3.39532,3.00782 c -6.15106,5.44904 -10.12275,8.63001 -20.41664,16.35189 -3.17783,2.38383 -7.04276,5.33704 -8.58873,6.5627 -5.71047,4.52729 -6.40252,4.98882 -6.40252,4.26989 z"
       id="path1418"
       inkscape:connector-curvature="0"
       transform="scale(0.26458333)" />
    <path
       style="opacity:1;fill:none;fill-opacity:1;fill-rule:nonzero;stroke:none;stroke-width:0.94433069;stroke-linejoin:round;stroke-miterlimit:4;stroke-dasharray:none;stroke-dashoffset:0;stroke-opacity:1"
       d="m 401.5982,458.41413 c -1.98275,-1.14118 -4.36354,-3.41092 -5.18195,-4.94023 -0.75677,-1.41411 -0.77299,-4.74135 -0.0299,-6.12727 0.29629,-0.55258 1.08788,-1.58199 1.75909,-2.28758 0.96276,-1.01207 1.40673,-1.26149 2.10316,-1.18153 1.41101,0.162 1.74893,1.32296 2.02945,6.97235 0.13647,2.74839 0.4572,5.76353 0.71273,6.7003 0.25553,0.93678 0.4318,1.73602 0.39171,1.77611 -0.0401,0.0401 -0.84303,-0.37038 -1.78432,-0.91215 z"
       id="path1420"
       inkscape:connector-curvature="0"
       transform="scale(0.26458333)" />
    <path
       style="opacity:1;fill:none;fill-opacity:1;fill-rule:nonzero;stroke:none;stroke-width:0.94433069;stroke-linejoin:round;stroke-miterlimit:4;stroke-dasharray:none;stroke-dashoffset:0;stroke-opacity:1"
       d="m 295.98921,564.71316 c -5.77526,-3.8782 -17.13994,-13.88319 -26.92816,-23.70642 l -6.52326,-6.5466 0.35624,-2.92158 c 0.51502,-4.22382 0.90521,-11.17575 1.4524,-25.87694 0.5395,-14.49479 1.06654,-20.15014 2.21735,-23.7931 3.15132,-9.97572 18.7475,-36.86314 21.97724,-37.88822 1.20432,-0.38224 3.84626,1.68495 4.84601,3.79178 0.76456,1.61119 0.44178,2.91896 -1.31061,5.31002 -4.06522,5.54684 -5.94145,8.76125 -7.44414,12.75353 -1.02765,2.73023 -0.99495,3.72871 0.16541,5.05028 0.84236,0.9594 0.93687,1.27888 0.93614,3.16441 -0.002,4.32244 -2.18264,16.04351 -4.50391,24.20506 -2.41523,8.49192 -2.7726,12.06835 -1.88531,18.86792 1.03634,7.94182 2.39332,14.27483 3.89064,18.1575 0.90711,2.35222 1.63704,3.543 7.28212,11.87984 2.72334,4.02191 5.91009,10.27885 7.54383,14.81174 1.75649,4.87344 1.53674,5.16411 -2.07199,2.74078 z"
       id="path1422"
       inkscape:connector-curvature="0"
       transform="scale(0.26458333)" />
    <path
       style="opacity:0;fill:none;fill-opacity:1;fill-rule:nonzero;stroke:none;stroke-width:0.94433069;stroke-linejoin:round;stroke-miterlimit:4;stroke-dasharray:none;stroke-dashoffset:0;stroke-opacity:1"
       d="m 296.80947,565.14236 c -4.56386,-2.70326 -15.75789,-12.43797 -26.95092,-23.43745 l -7.27978,-7.1539 0.47156,-4.68477 c 0.54559,-5.42036 0.66728,-7.5623 1.29529,-22.79919 0.75633,-18.35054 1.18086,-22.21242 2.98693,-27.17164 2.19284,-6.02124 10.10463,-20.68153 15.75942,-29.2017 3.12822,-4.71335 4.75963,-6.55912 5.79595,-6.55751 1.64472,0.003 4.05204,2.27007 4.65979,4.38915 0.39417,1.37439 -0.25839,2.78836 -3.20943,6.95425 -3.49976,4.9405 -6.47754,11.04662 -6.47754,13.28256 0,0.43626 0.38649,1.35294 0.85887,2.03707 0.79297,1.14844 0.85568,1.46127 0.81723,4.07692 -0.0677,4.60487 -1.82503,13.93775 -4.50299,23.91448 -2.25587,8.4042 -2.57343,11.88324 -1.6958,18.5782 1.12124,8.55327 2.79194,15.74768 4.49778,19.3684 0.48557,1.03065 2.65314,4.5191 4.81682,7.75211 2.25919,3.37573 4.90864,7.8299 6.22343,10.46264 2.39641,4.79859 4.5217,10.56609 4.06268,11.02511 -0.14891,0.14891 -1.0944,-0.22175 -2.12929,-0.83473 z"
       id="path1430"
       inkscape:connector-curvature="0"
       transform="scale(0.26458333)" />
    <path
       style="opacity:0;fill:#ffffff;fill-opacity:1;fill-rule:nonzero;stroke:none;stroke-width:0.94433069;stroke-linejoin:round;stroke-miterlimit:4;stroke-dasharray:none;stroke-dashoffset:0;stroke-opacity:1"
       d="m 350.2507,619.76022 c -0.45878,-0.65767 -2.50195,-3.72553 -4.54037,-6.81747 -4.22807,-6.41327 -8.09629,-11.19099 -9.52343,-11.86807 -0.68088,-0.32303 0.13175,0.64606 0,0 -0.25595,-1.25514 -1.65215,-3.22814 -4.89864,-6.92239 -3.66421,-4.16959 -7.22309,-7.55891 -15.88344,-15.12668 -10.49674,-9.17249 -10.52206,-9.20503 -13.4646,-17.30296 -2.86612,-7.88764 -5.90362,-13.74172 -10.30332,-19.8572 -4.37612,-6.08273 -5.61785,-8.88317 -6.98229,-15.74702 -1.21459,-6.11002 -1.81941,-11.76336 -1.67161,-15.62466 0.11537,-3.01422 0.25064,-3.72768 0.99537,-5.24984 0.86935,-1.77688 2.76446,-3.64107 4.2918,-4.22176 0.59832,-0.22749 1.10328,-0.16602 2.02004,0.24588 1.88019,0.84476 3.09164,2.02539 4.96083,4.83461 2.16918,3.26007 3.56129,6.31444 5.01473,11.00261 0.63154,2.03707 1.50008,4.8281 1.93008,6.2023 1.00015,3.19624 2.58016,6.21851 4.89773,9.36846 2.66959,3.6284 9.9984,10.76523 17.52461,17.06554 11.31235,9.46975 15.38888,14.38814 20.2847,24.47379 4.20818,8.66908 5.4642,16.00927 6.46463,37.77948 0.42102,9.16173 0.32466,9.83172 -1.11682,7.76538 z"
       id="path1432"
       inkscape:connector-curvature="0"
       transform="scale(0.26458333)"
       sodipodi:nodetypes="csccssscscccccscssssc" />
    <path
       style="opacity:0;fill:#ffffff;fill-opacity:1;fill-rule:nonzero;stroke:none;stroke-width:0.94433069;stroke-linejoin:round;stroke-miterlimit:4;stroke-dasharray:none;stroke-dashoffset:0;stroke-opacity:1"
       d="m 355.25452,621.0681 c -0.5387,-2.14634 -3.07472,-27.00986 -3.48872,-34.20388 -0.19953,-3.46718 -0.17273,-3.69298 0.77327,-6.51546 1.23065,-3.67174 4.17027,-9.46436 6.89431,-13.58548 3.65721,-5.53288 7.71695,-9.73232 19.99657,-20.6847 13.2706,-11.83626 15.62912,-15.09616 19.52515,-26.9873 3.12442,-9.53612 4.76047,-12.76082 7.99213,-15.75277 1.92682,-1.7839 3.71605,-2.58575 5.03249,-2.25535 1.41894,0.35613 3.24848,1.97463 3.97196,3.51376 1.77054,3.76667 1.22594,13.7656 -1.29126,23.70773 -1.18729,4.68942 -2.32096,7.17666 -5.57781,12.23757 -7.84461,12.18998 -10.54187,17.61928 -11.69827,23.54731 -0.29227,1.49827 0.68141,-1.42327 0,0 -0.65791,1.3742 -3.28889,8.45327 -3.7575,9.4628 -1.1593,2.49752 -3.85692,5.78061 -11.77657,14.33242 -12.40748,13.3979 -17.49688,19.74172 -23.10974,28.80581 -3.5317,5.70327 -3.24396,5.34195 -3.48601,4.37754 z"
       id="path1434"
       inkscape:connector-curvature="0"
       transform="scale(0.26458333)"
       sodipodi:nodetypes="cscssssccssccccsc" />
    <path
       style="opacity:0;fill:#ffffff;fill-opacity:1;fill-rule:nonzero;stroke:none;stroke-width:0.94433069;stroke-linejoin:round;stroke-miterlimit:4;stroke-dasharray:none;stroke-dashoffset:0;stroke-opacity:1"
       d="m 397.99389,571.95105 c 4.22939,-11.32999 8.84404,-20.85974 13.49777,-27.87435 1.88036,-2.83429 3.85444,-5.92623 4.38685,-6.87099 3.65757,-6.49038 5.28105,-20.92016 5.02481,-44.66143 l -0.11967,-11.08728 -0.84535,-2.43217 c -1.50125,-4.31928 -3.08097,-7.03912 -6.75028,-11.62213 -4.84296,-6.04891 -6.91992,-10.55923 -6.97524,-15.1474 -0.0361,-2.99678 0.70531,-5.2715 2.24621,-6.89133 1.41258,-1.48493 2.62368,-1.6228 4.00979,-0.45646 0.50492,0.42486 2.32374,2.84923 4.04182,5.38748 7.13186,10.53642 14.3669,24.30849 17.19107,32.7236 l 0.94335,2.81086 0.17942,11.55575 c 0.0987,6.35567 0.3913,14.29635 0.65025,17.64595 0.52071,6.73544 1.10468,19.42873 1.10755,24.07415 l 0.002,2.99269 -4.29436,3.73929 c -5.5938,4.87074 -8.85658,7.48258 -18.50485,14.81304 -4.38026,3.32799 -9.64961,7.35508 -11.70968,8.94909 -2.06007,1.59401 -3.86703,2.8982 -4.01547,2.8982 -0.14843,0 -0.17807,-0.24595 -0.0659,-0.54656 z"
       id="path1436"
       inkscape:connector-curvature="0"
       transform="scale(0.26458333)" />
    <path
       style="opacity:0;fill:#ffffff;fill-opacity:0.91000001;fill-rule:nonzero;stroke:none;stroke-width:0.94433069;stroke-linejoin:round;stroke-miterlimit:4;stroke-dasharray:none;stroke-dashoffset:0;stroke-opacity:1"
       d="m 401.43612,458.21241 c -1.75066,-1.00142 -4.67265,-3.94443 -5.14205,-5.17906 -0.39572,-1.04081 -0.40356,-4.2425 -0.0129,-5.27 0.34975,-0.91991 2.35268,-3.2085 3.2092,-3.66689 0.8514,-0.45566 1.97778,0.37185 2.23125,1.6392 0.11202,0.56005 0.34229,2.99394 0.51172,5.40863 0.16943,2.41469 0.46089,5.13934 0.64769,6.05478 0.1868,0.91544 0.28672,1.71735 0.22204,1.78202 -0.0647,0.0647 -0.8148,-0.28123 -1.66695,-0.76868 z"
       inkscape:connector-curvature="0"
       id="path1438"
       transform="scale(0.26458333)" />
    <path
       style="opacity:0;fill:#ffffff;fill-opacity:1;fill-rule:nonzero;stroke:none;stroke-width:0.94433069;stroke-linejoin:round;stroke-miterlimit:4;stroke-dasharray:none;stroke-dashoffset:0;stroke-opacity:1"
       d="m 440.85038,535.3318 c -0.0952,-0.60121 -0.25217,-2.49854 -0.3488,-4.21629 -0.0966,-1.71774 -0.45334,-6.56648 -0.79268,-10.77496 -0.33934,-4.20848 -0.76133,-12.85187 -0.93773,-19.20754 -0.17642,-6.35566 -0.4586,-12.75218 -0.62709,-14.21448 -0.59724,-5.18364 -1.85732,-8.69473 -6.55561,-18.26656 -5.87956,-11.97846 -11.66723,-21.11528 -16.65686,-26.2957 -1.70489,-1.77007 -3.2436,-3.21832 -3.41936,-3.21832 -0.17575,0 -1.31051,0.57133 -2.52169,1.26963 -3.07197,1.77112 -3.69797,1.84876 -5.19651,0.6445 -1.75204,-1.40798 -2.67408,-1.69517 -4.03036,-1.25534 -4.12436,1.3375 -7.6338,6.14522 -7.66909,10.50618 -0.01,1.22796 -0.14608,1.95174 -0.36718,1.95199 -0.19327,2.1e-4 -3.84739,-1.1852 -8.12026,-2.63425 -7.68058,-2.60471 -12.16169,-3.92404 -13.328,-3.92404 -0.52338,0 -0.57272,0.1485 -0.38383,1.15537 0.11922,0.63546 1.06943,3.05822 2.11159,5.38392 2.20726,4.92576 2.51213,6.43248 1.48912,7.35965 -0.60185,0.54547 -1.21398,0.63669 -4.87283,0.72611 -2.30148,0.0563 -4.18451,0.17234 -4.18451,0.25797 0,0.0856 0.6109,0.95312 1.35755,1.92778 0.74665,0.97466 1.51963,2.07909 1.71775,2.45429 0.50541,0.9572 0.44825,2.66946 -0.15807,4.73531 -0.52545,1.79032 -0.66464,4.98304 -0.46345,10.63052 0.0927,2.60116 0.0306,3.02254 -0.55174,3.74781 -1.42429,1.77377 -1.71026,2.33759 -1.68249,3.31725 0.0445,1.57023 0.91934,3.09169 3.25839,5.66688 1.17908,1.29812 2.14378,2.45465 2.14378,2.57007 0,0.11542 -1.40238,0.81996 -3.1164,1.56564 -4.0087,1.74396 -7.37113,3.66764 -10.20581,5.83882 -2.57149,1.96961 -6.04149,5.54827 -6.04149,6.23069 0,0.25138 -0.095,0.45705 -0.21105,0.45705 -0.11608,0 -2.04855,-1.79985 -4.29437,-3.99967 -4.75652,-4.6591 -7.34553,-6.39218 -12.23604,-8.1908 -5.4222,-1.99416 -6.15454,-2.30974 -6.28767,-2.70947 -0.3184,-0.95602 8.75475,-3.69852 16.71118,-5.05122 1.93603,-0.32915 3.86699,-0.82578 4.29103,-1.10362 0.42404,-0.27785 1.3969,-1.45158 2.1619,-2.6083 0.765,-1.15672 2.08128,-2.9162 2.92505,-3.90995 4.12579,-4.85909 6.25143,-13.44911 3.71739,-15.02245 -0.37797,-0.23467 -1.55238,-0.58917 -2.6098,-0.78777 -4.54077,-0.85283 -12.68852,-5.05896 -13.95143,-7.20219 -0.31374,-0.53243 -1.04127,-2.38542 -1.61673,-4.11775 -1.4733,-4.43508 -2.14044,-5.06554 -7.26509,-6.86552 -3.41034,-1.19785 -6.56323,-2.76138 -8.40654,-4.16885 -2.6309,-2.00884 -4.65457,-1.81062 -7.87135,0.77102 -1.07324,0.86133 -2.16628,1.56605 -2.42899,1.56605 -0.26272,0 -0.86303,-0.27441 -1.33403,-0.60979 -1.84632,-1.31469 -8.94904,-4.48475 -10.36676,-4.62684 -1.19377,-0.11965 -1.4197,-0.24097 -1.30014,-0.69818 0.34763,-1.32932 -1.80856,-0.96806 -3.8353,0.64259 -1.49302,1.1865 -2.20566,1.15864 -4.41326,-0.17254 -2.06191,-1.24332 -3.0628,-1.34825 -4.71285,-0.49406 -4.07355,2.10875 -11.39026,13.15685 -19.27766,29.1089 -6.30656,12.75483 -6.47786,13.64269 -7.34426,38.06419 -0.36966,10.41985 -0.76791,15.92351 -1.33289,18.42007 l -0.38723,1.71107 -1.8205,-4.32745 c -2.80763,-6.67392 -3.7345,-9.68552 -4.71965,-15.33522 -1.18521,-6.79703 -1.1867,-21.57666 -0.003,-31.07561 1.90956,-15.3254 6.98454,-28.47175 14.76937,-38.25891 3.73063,-4.69018 9.66489,-10.29228 13.96012,-13.17872 11.98332,-8.05292 27.98702,-8.24239 41.60079,-0.49251 4.05826,2.31023 7.72733,5.18214 11.65647,9.12393 6.19941,6.21937 10.46665,12.58886 15.76495,23.53149 1.54597,3.19292 2.89347,5.81425 2.99445,5.82518 0.10098,0.0109 1.22532,-2.18628 2.49854,-4.8827 2.42009,-5.12525 5.94365,-11.28565 8.50587,-14.8712 3.95324,-5.53212 9.18287,-11.15583 11.74891,-12.63423 0.78313,-0.45119 3.08182,-1.92426 5.1082,-3.2735 5.88947,-3.9214 9.62698,-5.56101 15.60638,-6.84637 4.19004,-0.90072 11.30524,-0.97616 15.15115,-0.16065 8.42875,1.78729 15.56576,5.78507 22.40457,12.54988 11.75994,11.63268 17.78041,25.79589 20.51132,48.25308 0.5211,4.28521 0.52695,16.81647 0.01,20.45681 -1.80519,12.70087 -5.95192,23.23895 -13.23061,33.62297 l -0.51306,0.73197 z"
       inkscape:connector-curvature="0"
       id="path1440"
       transform="scale(0.26458333)" />
    <path
       style="opacity:0;fill:none;fill-opacity:0.91000001;fill-rule:nonzero;stroke:none;stroke-width:1.33548522;stroke-linejoin:round;stroke-miterlimit:4;stroke-dasharray:none;stroke-dashoffset:0;stroke-opacity:1"
       d="M 50.866636,151.67169 C 45.223377,147.84161 32.585649,136.60853 22.840323,126.76042 l -4.991428,-5.04407 0.449809,-3.72486 c 0.247394,-2.04867 0.65567,-8.39566 0.90728,-14.10442 1.17746,-26.715348 1.510357,-30.679838 2.96477,-35.307569 1.023659,-3.257138 6.802897,-14.914336 10.743072,-21.66966 5.954859,-10.209444 9.894237,-15.458937 11.600855,-15.458937 0.495198,0 1.664617,0.8034 2.598708,1.785333 2.424178,2.548341 2.321182,3.887264 -0.634312,8.245912 -3.639434,5.367294 -4.93648,7.62486 -6.206816,10.80323 -1.40982,3.527362 -1.458012,4.508179 -0.294203,5.987721 0.630307,0.801307 0.883367,1.791816 0.883367,3.457616 0,3.633128 -1.943349,14.198898 -4.219897,22.9431 -3.064779,11.771791 -3.121812,16.675534 -0.348757,29.986334 1.539553,7.38993 2.287321,9.10363 7.294723,16.71776 5.832846,8.86927 10.524449,18.27725 10.524449,21.10447 0,1.21542 -0.411497,1.11263 -3.245307,-0.81069 z"
       id="path1467"
       inkscape:connector-curvature="0"
       transform="matrix(0.26458333,0,0,0.26458333,64.751044,109.17785)" />
    <path
       style="opacity:0;fill:none;fill-opacity:0.91000001;fill-rule:nonzero;stroke:none;stroke-width:1.33548522;stroke-linejoin:round;stroke-miterlimit:4;stroke-dasharray:none;stroke-dashoffset:0;stroke-opacity:1"
       d="m 155.58798,44.70409 c -3.12542,-2.238061 -4.30557,-4.10729 -4.30557,-6.819519 0,-2.311684 0.45485,-3.429243 2.12418,-5.219036 1.24052,-1.330042 2.35059,-1.546694 3.12763,-0.61042 0.27579,0.332317 0.69096,3.065236 0.92258,6.073154 0.23162,3.007919 0.55205,6.114905 0.71205,6.904415 0.16001,0.78951 0.19905,1.435473 0.0868,1.435473 -0.11228,0 -1.31272,-0.79383 -2.66764,-1.764067 z"
       id="path1469"
       inkscape:connector-curvature="0"
       transform="matrix(0.26458333,0,0,0.26458333,64.751044,109.17785)" />
    <path
       style="opacity:0;fill:none;fill-opacity:0.91000001;fill-rule:nonzero;stroke:none;stroke-width:1.33548522;stroke-linejoin:round;stroke-miterlimit:4;stroke-dasharray:none;stroke-dashoffset:0;stroke-opacity:1"
       d="M 50.866636,151.67169 C 45.223377,147.84161 32.585649,136.60853 22.840323,126.76042 l -4.991428,-5.04407 0.449809,-3.72486 c 0.247394,-2.04867 0.65567,-8.39566 0.90728,-14.10442 1.17746,-26.715348 1.510357,-30.679838 2.96477,-35.307569 1.023659,-3.257138 6.802897,-14.914336 10.743072,-21.66966 5.954859,-10.209444 9.894237,-15.458937 11.600855,-15.458937 0.495198,0 1.664617,0.8034 2.598708,1.785333 2.424178,2.548341 2.321182,3.887264 -0.634312,8.245912 -3.639434,5.367294 -4.93648,7.62486 -6.206816,10.80323 -1.40982,3.527362 -1.458012,4.508179 -0.294203,5.987721 0.630307,0.801307 0.883367,1.791816 0.883367,3.457616 0,3.633128 -1.943349,14.198898 -4.219897,22.9431 -3.064779,11.771791 -3.121812,16.675534 -0.348757,29.986334 1.539553,7.38993 2.287321,9.10363 7.294723,16.71776 5.832846,8.86927 10.524449,18.27725 10.524449,21.10447 0,1.21542 -0.411497,1.11263 -3.245307,-0.81069 z"
       id="path1471"
       inkscape:connector-curvature="0"
       transform="matrix(0.26458333,0,0,0.26458333,64.751044,109.17785)" />
    <path
       style="opacity:0;fill:none;fill-opacity:0.91000001;fill-rule:nonzero;stroke:none;stroke-width:1.33548522;stroke-linejoin:round;stroke-miterlimit:4;stroke-dasharray:none;stroke-dashoffset:0;stroke-opacity:1"
       d="M 50.866636,151.67169 C 45.223377,147.84161 32.585649,136.60853 22.840323,126.76042 l -4.991428,-5.04407 0.449809,-3.72486 c 0.247394,-2.04867 0.65567,-8.39566 0.90728,-14.10442 1.17746,-26.715348 1.510357,-30.679838 2.96477,-35.307569 1.023659,-3.257138 6.802897,-14.914336 10.743072,-21.66966 5.954859,-10.209444 9.894237,-15.458937 11.600855,-15.458937 0.495198,0 1.664617,0.8034 2.598708,1.785333 2.424178,2.548341 2.321182,3.887264 -0.634312,8.245912 -3.639434,5.367294 -4.93648,7.62486 -6.206816,10.80323 -1.40982,3.527362 -1.458012,4.508179 -0.294203,5.987721 0.630307,0.801307 0.883367,1.791816 0.883367,3.457616 0,3.633128 -1.943349,14.198898 -4.219897,22.9431 -3.064779,11.771791 -3.121812,16.675534 -0.348757,29.986334 1.539553,7.38993 2.287321,9.10363 7.294723,16.71776 5.832846,8.86927 10.524449,18.27725 10.524449,21.10447 0,1.21542 -0.411497,1.11263 -3.245307,-0.81069 z"
       id="path1473"
       inkscape:connector-curvature="0"
       transform="matrix(0.26458333,0,0,0.26458333,64.751044,109.17785)" />
    <path
       style="opacity:0;fill:none;fill-opacity:0.91000001;fill-rule:nonzero;stroke:none;stroke-width:1.33548522;stroke-linejoin:round;stroke-miterlimit:4;stroke-dasharray:none;stroke-dashoffset:0;stroke-opacity:1"
       d="M 50.866636,151.67169 C 45.223377,147.84161 32.585649,136.60853 22.840323,126.76042 l -4.991428,-5.04407 0.449809,-3.72486 c 0.247394,-2.04867 0.65567,-8.39566 0.90728,-14.10442 1.17746,-26.715348 1.510357,-30.679838 2.96477,-35.307569 1.023659,-3.257138 6.802897,-14.914336 10.743072,-21.66966 5.954859,-10.209444 9.894237,-15.458937 11.600855,-15.458937 0.495198,0 1.664617,0.8034 2.598708,1.785333 2.424178,2.548341 2.321182,3.887264 -0.634312,8.245912 -3.639434,5.367294 -4.93648,7.62486 -6.206816,10.80323 -1.40982,3.527362 -1.458012,4.508179 -0.294203,5.987721 0.630307,0.801307 0.883367,1.791816 0.883367,3.457616 0,3.633128 -1.943349,14.198898 -4.219897,22.9431 -3.064779,11.771791 -3.121812,16.675534 -0.348757,29.986334 1.539553,7.38993 2.287321,9.10363 7.294723,16.71776 5.832846,8.86927 10.524449,18.27725 10.524449,21.10447 0,1.21542 -0.411497,1.11263 -3.245307,-0.81069 z"
       id="path1475"
       inkscape:connector-curvature="0"
       transform="matrix(0.26458333,0,0,0.26458333,64.751044,109.17785)" />
    <path
       style="opacity:0;fill:#000000;fill-opacity:0;fill-rule:nonzero;stroke:none;stroke-width:1.33548522;stroke-linejoin:round;stroke-miterlimit:4;stroke-dasharray:none;stroke-dashoffset:0;stroke-opacity:1"
       d="m 102.41201,202.27216 c -3.976971,-6.12489 -7.326671,-10.6813 -9.497741,-12.91925 -0.707004,-0.72878 -1.908102,-2.28961 -2.66911,-3.46851 -2.113241,-3.27368 -9.354973,-10.53944 -19.128385,-19.19184 -9.806555,-8.68174 -11.203299,-10.40246 -13.44843,-16.56772 -2.572987,-7.06557 -6.098345,-13.97724 -10.436431,-20.46122 -2.313037,-3.45721 -4.698061,-7.54082 -5.300052,-9.07468 -1.523008,-3.88059 -2.738371,-10.12142 -3.338603,-17.14356 -0.670666,-7.846159 -0.213912,-10.28001 2.451217,-13.061493 2.662992,-2.779252 3.992773,-2.708612 7.023119,0.373077 3.246289,3.301288 4.881424,6.343497 7.192333,13.381506 2.738697,8.34087 3.991565,11.32678 6.084467,14.50086 2.213077,3.35633 10.10425,11.2792 17.943532,18.0156 11.509025,9.88985 16.771516,16.18693 20.782034,24.86767 3.44484,7.45635 4.72829,12.78027 5.72575,23.7512 0.58854,6.47328 1.10165,22.85067 0.71593,22.85067 -0.16481,0 -2.00965,-2.63354 -4.09963,-5.85231 z"
       id="path1477"
       inkscape:connector-curvature="0"
       transform="matrix(0.26458333,0,0,0.26458333,64.751044,109.17785)" />
    <path
       style="opacity:0;fill:#000000;fill-opacity:0;fill-rule:nonzero;stroke:none;stroke-width:1.33548522;stroke-linejoin:round;stroke-miterlimit:4;stroke-dasharray:none;stroke-dashoffset:0;stroke-opacity:1"
       d="M 50.866636,151.67169 C 45.223377,147.84161 32.585649,136.60853 22.840323,126.76042 l -4.991428,-5.04407 0.449809,-3.72486 c 0.247394,-2.04867 0.65567,-8.39566 0.90728,-14.10442 1.17746,-26.715348 1.510357,-30.679838 2.96477,-35.307569 1.023659,-3.257138 6.802897,-14.914336 10.743072,-21.66966 5.954859,-10.209444 9.894237,-15.458937 11.600855,-15.458937 0.495198,0 1.664617,0.8034 2.598708,1.785333 2.424178,2.548341 2.321182,3.887264 -0.634312,8.245912 -3.639434,5.367294 -4.93648,7.62486 -6.206816,10.80323 -1.40982,3.527362 -1.458012,4.508179 -0.294203,5.987721 0.630307,0.801307 0.883367,1.791816 0.883367,3.457616 0,3.633128 -1.943349,14.198898 -4.219897,22.9431 -3.064779,11.771791 -3.121812,16.675534 -0.348757,29.986334 1.539553,7.38993 2.287321,9.10363 7.294723,16.71776 5.832846,8.86927 10.524449,18.27725 10.524449,21.10447 0,1.21542 -0.411497,1.11263 -3.245307,-0.81069 z"
       id="path1479"
       inkscape:connector-curvature="0"
       transform="matrix(0.26458333,0,0,0.26458333,64.751044,109.17785)" />
    <path
       style="opacity:0;fill:#000000;fill-opacity:0;fill-rule:nonzero;stroke:none;stroke-width:1.33548522;stroke-linejoin:round;stroke-miterlimit:4;stroke-dasharray:none;stroke-dashoffset:0;stroke-opacity:1"
       d="M 50.866636,151.67169 C 45.223377,147.84161 32.585649,136.60853 22.840323,126.76042 l -4.991428,-5.04407 0.449809,-3.72486 c 0.247394,-2.04867 0.65567,-8.39566 0.90728,-14.10442 1.17746,-26.715348 1.510357,-30.679838 2.96477,-35.307569 1.023659,-3.257138 6.802897,-14.914336 10.743072,-21.66966 5.954859,-10.209444 9.894237,-15.458937 11.600855,-15.458937 0.495198,0 1.664617,0.8034 2.598708,1.785333 2.424178,2.548341 2.321182,3.887264 -0.634312,8.245912 -3.639434,5.367294 -4.93648,7.62486 -6.206816,10.80323 -1.40982,3.527362 -1.458012,4.508179 -0.294203,5.987721 0.630307,0.801307 0.883367,1.791816 0.883367,3.457616 0,3.633128 -1.943349,14.198898 -4.219897,22.9431 -3.064779,11.771791 -3.121812,16.675534 -0.348757,29.986334 1.539553,7.38993 2.287321,9.10363 7.294723,16.71776 5.832846,8.86927 10.524449,18.27725 10.524449,21.10447 0,1.21542 -0.411497,1.11263 -3.245307,-0.81069 z"
       id="path1481"
       inkscape:connector-curvature="0"
       transform="matrix(0.26458333,0,0,0.26458333,64.751044,109.17785)" />
    <path
       style="opacity:0;fill:#000000;fill-opacity:0;fill-rule:nonzero;stroke:none;stroke-width:1.33548522;stroke-linejoin:round;stroke-miterlimit:4;stroke-dasharray:none;stroke-dashoffset:0;stroke-opacity:1"
       d="M 50.866636,151.67169 C 45.223377,147.84161 32.585649,136.60853 22.840323,126.76042 l -4.991428,-5.04407 0.449809,-3.72486 c 0.247394,-2.04867 0.65567,-8.39566 0.90728,-14.10442 1.17746,-26.715348 1.510357,-30.679838 2.96477,-35.307569 1.023659,-3.257138 6.802897,-14.914336 10.743072,-21.66966 5.954859,-10.209444 9.894237,-15.458937 11.600855,-15.458937 0.495198,0 1.664617,0.8034 2.598708,1.785333 2.424178,2.548341 2.321182,3.887264 -0.634312,8.245912 -3.639434,5.367294 -4.93648,7.62486 -6.206816,10.80323 -1.40982,3.527362 -1.458012,4.508179 -0.294203,5.987721 0.630307,0.801307 0.883367,1.791816 0.883367,3.457616 0,3.633128 -1.943349,14.198898 -4.219897,22.9431 -3.064779,11.771791 -3.121812,16.675534 -0.348757,29.986334 1.539553,7.38993 2.287321,9.10363 7.294723,16.71776 5.832846,8.86927 10.524449,18.27725 10.524449,21.10447 0,1.21542 -0.411497,1.11263 -3.245307,-0.81069 z"
       id="path1483"
       inkscape:connector-curvature="0"
       transform="matrix(0.26458333,0,0,0.26458333,64.751044,109.17785)" />
    <path
       style="opacity:0;fill:none;fill-opacity:0;fill-rule:nonzero;stroke:none;stroke-width:1.33548522;stroke-linejoin:round;stroke-miterlimit:4;stroke-dasharray:none;stroke-dashoffset:0;stroke-opacity:1"
       d="m 155.58798,44.70409 c -3.12542,-2.238061 -4.30557,-4.10729 -4.30557,-6.819519 0,-2.311684 0.45485,-3.429243 2.12418,-5.219036 1.24052,-1.330042 2.35059,-1.546694 3.12763,-0.61042 0.27579,0.332317 0.69096,3.065236 0.92258,6.073154 0.23162,3.007919 0.55205,6.114905 0.71205,6.904415 0.16001,0.78951 0.19905,1.435473 0.0868,1.435473 -0.11228,0 -1.31272,-0.79383 -2.66764,-1.764067 z"
       id="path1485"
       inkscape:connector-curvature="0"
       transform="matrix(0.26458333,0,0,0.26458333,64.751044,109.17785)" />
    <path
       style="opacity:0;fill:none;fill-opacity:0;fill-rule:nonzero;stroke:none;stroke-width:1.33548522;stroke-linejoin:round;stroke-miterlimit:4;stroke-dasharray:none;stroke-dashoffset:0;stroke-opacity:1"
       d="m 110.47938,208.53317 c -0.1099,-0.34625 -0.32354,-1.82209 -0.47476,-3.27964 -0.15121,-1.45756 -0.56549,-5.43272 -0.9206,-8.83368 -0.35512,-3.40097 -1.03822,-10.43614 -1.518,-15.63371 l -0.87234,-9.45013 1.12323,-3.34603 c 2.28376,-6.80322 7.14707,-14.95813 12.33956,-20.69128 1.64219,-1.81317 7.18068,-7.1208 12.30776,-11.79472 15.88112,-14.47747 17.23001,-16.27834 21.75031,-29.03823 1.57135,-4.43559 3.46749,-9.210123 4.21366,-10.610069 1.53084,-2.872151 5.41948,-6.797053 7.1694,-7.236256 1.71997,-0.431683 3.72217,0.602594 5.0487,2.608005 1.14997,1.738501 1.17426,1.923145 1.16738,8.87386 -0.013,13.1153 -2.03477,19.32707 -10.75369,33.0399 -3.51823,5.53336 -6.37058,11.23445 -7.57234,15.13511 -0.5239,1.70048 -1.94423,5.60758 -3.15628,8.68244 -2.48174,6.29597 -3.3487,7.48279 -13.82291,18.92281 -12.03591,13.1457 -15.52907,17.49272 -21.88225,27.23105 -2.25228,3.45236 -4.03282,5.7798 -4.14683,5.42057 z"
       id="path1487"
       inkscape:connector-curvature="0"
       transform="matrix(0.26458333,0,0,0.26458333,64.751044,109.17785)" />
  </g>
</svg>
