<svg height="512pt" viewBox="-31 0 512 512" width="512pt" xmlns="http://www.w3.org/2000/svg"><g fill="#f072ae"><path d="m225.019531 375.28125h-37.734375c-99.292968 0-179.785156-80.492188-179.785156-179.785156v-37.730469h37.730469c99.292969 0 179.789062 80.492187 179.789062 179.785156zm0 0"/><path d="m225.019531 375.28125h37.730469c99.292969 0 179.785156-80.492188 179.785156-179.785156v-37.730469h-37.730468c-99.292969 0-179.785157 80.492187-179.785157 179.785156zm0 0"/><path d="m148.390625 190.285156c4.121094-23.53125 12.953125-46.398437 26.484375-67.089844-10.074219-6.875-21.003906-12.824218-32.71875-17.671874l-34.859375-14.441407-14.4375 34.859375c-4.851563 11.714844-8.375 23.648438-10.636719 35.632813 24.199219 5.0625 46.613282 14.988281 66.167969 28.710937zm0 0"/><path d="m301.644531 190.285156c19.554688-13.722656 41.96875-23.648437 66.167969-28.710937-2.261719-11.984375-5.78125-23.917969-10.636719-35.632813l-14.4375-34.859375-34.859375 14.441407c-11.714844 4.851562-22.644531 10.800781-32.71875 17.675781 13.535156 20.691406 22.363282 43.558593 26.484375 67.085937zm0 0"/><path d="m225.019531 337.550781c0-60.910156 30.289063-114.746093 76.625-147.265625-6.15625-35.136718-22.804687-68.796875-49.945312-95.9375l-26.679688-26.679687-26.683593 26.679687c-27.140626 27.140625-43.789063 60.800782-49.945313 95.9375 46.335937 32.519532 76.628906 86.355469 76.628906 147.265625zm0 0"/></g><path d="m201.445312 375.28125h47.140626v129.21875h-47.140626zm0 0" fill="#b6e892"/><path d="m165.390625 50.667969c0 9.386719-7.613281 17-17 17-9.390625 0-17-7.613281-17-17 0-9.390625 7.609375-17 17-17 9.386719 0 17 7.609375 17 17zm0 0" fill="#ffe477"/><path d="m318.644531 50.667969c0 9.386719-7.609375 17-17 17-9.386719 0-17-7.613281-17-17 0-9.390625 7.613281-17 17-17 9.390625 0 17 7.609375 17 17zm0 0" fill="#ffe477"/><path d="m242.019531 24.5c0 9.390625-7.613281 17-17 17-9.390625 0-17-7.609375-17-17s7.609375-17 17-17c9.386719 0 17 7.609375 17 17zm0 0" fill="#ffe477"/><path d="m37.5 195.496094v-37.730469h-30v37.730469c0 99.292968 80.492188 179.789062 179.785156 179.789062h30c-99.292968-.003906-179.785156-80.496094-179.785156-179.789062zm0 0" fill="#ff3f62"/><path d="m434.804688 157.765625h-30c-99.292969 0-179.785157 80.492187-179.785157 179.785156v37.730469h30v-37.730469c0-99.292969 80.492188-179.785156 179.785157-179.785156zm0 0" fill="#ff3f62"/><path d="m112.222656 161.574219c2.261719-11.984375 5.785156-23.917969 10.636719-35.632813l10.046875-24.25-25.609375-10.609375-14.4375 34.859375c-4.851563 11.714844-8.375 23.648438-10.636719 35.632813 24.199219 5.0625 46.613282 14.988281 66.167969 28.710937.910156-5.183594 2.046875-10.339844 3.414063-15.445312-12.476563-5.878906-25.738282-10.367188-39.582032-13.265625zm0 0" fill="#ff3f62"/><path d="m305.160156 123.199219c10.074219-6.875 21.003906-12.824219 32.71875-17.675781l9.253906-3.832032-4.394531-10.609375-34.859375 14.441407c-11.714844 4.851562-22.644531 10.800781-32.71875 17.675781 13.535156 20.691406 22.363282 43.558593 26.484375 67.085937 8.367188-5.871094 17.257813-11.046875 26.589844-15.445312-4.832031-18.058594-12.523437-35.511719-23.074219-51.640625zm0 0" fill="#ff3f62"/><path d="m178.390625 190.285156c6.15625-35.136718 22.804687-68.796875 49.945313-95.9375l11.683593-11.679687-15-15-26.683593 26.679687c-27.140626 27.140625-43.789063 60.800782-49.945313 95.9375 46.335937 32.519532 76.628906 86.355469 76.628906 147.265625 0-25.605469 5.351563-49.957031 15-72.003906-13.304687-30.398437-34.769531-56.410156-61.628906-75.261719zm0 0" fill="#ff3f62"/><path d="m201.445312 375.28125h30v129.21875h-30zm0 0" fill="#95d6a6"/><path d="m404.804688 150.265625c-85.039063 0-157.019532 56.96875-179.785157 134.746094-22.765625-77.777344-94.75-134.746094-179.789062-134.746094h-45.230469v45.230469c0 103.273437 84.015625 187.289062 187.285156 187.289062h75.464844c103.269531 0 187.285156-84.015625 187.285156-187.289062v-45.230469zm-187.285157 217.515625h-30.234375c-95 0-172.285156-77.285156-172.285156-172.285156v-30.230469h30.230469c95 0 172.289062 77.285156 172.289062 172.285156zm217.515625-172.285156c0 95-77.285156 172.289062-172.285156 172.289062h-30.230469v-30.234375c0-94.996093 77.285157-172.285156 172.285157-172.285156h30.230468zm0 0"/><path d="m241.085938 497h-32.140626v-101.71875h-15v116.71875h62.140626v-116.71875h-15zm0 0"/><path d="m148.390625 75.167969c13.507813 0 24.5-10.992188 24.5-24.5 0-13.511719-10.992187-24.5-24.5-24.5s-24.5 10.988281-24.5 24.5c0 13.507812 10.992187 24.5 24.5 24.5zm0-34c5.238281 0 9.5 4.261719 9.5 9.5s-4.261719 9.5-9.5 9.5-9.5-4.261719-9.5-9.5 4.261719-9.5 9.5-9.5zm0 0"/><path d="m301.644531 75.167969c13.511719 0 24.5-10.992188 24.5-24.5 0-13.511719-10.988281-24.5-24.5-24.5-13.507812 0-24.5 10.988281-24.5 24.5 0 13.507812 10.992188 24.5 24.5 24.5zm0-34c5.238281 0 9.5 4.261719 9.5 9.5s-4.261719 9.5-9.5 9.5-9.5-4.261719-9.5-9.5 4.261719-9.5 9.5-9.5zm0 0"/><path d="m225.019531 49c13.507813 0 24.5-10.992188 24.5-24.5s-10.992187-24.5-24.5-24.5c-13.511719 0-24.5 10.992188-24.5 24.5s10.988281 24.5 24.5 24.5zm0-34c5.238281 0 9.5 4.261719 9.5 9.5s-4.261719 9.5-9.5 9.5-9.5-4.261719-9.5-9.5 4.261719-9.5 9.5-9.5zm0 0"/><path d="m288.796875 106.222656 7.019531 13.253906c4.835938-2.558593 9.859375-4.921874 14.929688-7.023437l27.933594-11.570313 11.566406 27.929688c2.105468 5.078125 3.988281 10.3125 5.597656 15.550781l14.339844-4.402343c-1.75-5.691407-3.792969-11.371094-6.078125-16.886719l-17.308594-41.789063-41.789063 17.308594c-5.507812 2.28125-10.960937 4.847656-16.210937 7.628906zm0 0"/><path d="m99.789062 128.8125 11.566407-27.929688 27.933593 11.570313c5.074219 2.101563 10.09375 4.464844 14.929688 7.023437l7.019531-13.253906c-5.246093-2.78125-10.703125-5.347656-16.210937-7.628906l-41.789063-17.3125-17.308593 41.789062c-2.285157 5.523438-4.332032 11.203126-6.078126 16.890626l14.339844 4.402343c1.609375-5.234375 3.492188-10.46875 5.597656-15.550781zm0 0"/><path d="m160.476562 171.738281c8.128907-27.050781 23.054688-51.976562 43.164063-72.085937l21.378906-21.378906 21.375 21.375c20.109375 20.109374 35.035157 45.039062 43.164063 72.089843l14.363281-4.316406c-8.839844-29.417969-25.0625-56.523437-46.921875-78.378906l-31.980469-31.984375-31.984375 31.988281c-21.859375 21.855469-38.082031 48.957031-46.921875 78.375zm0 0"/><path d="m208.453125 351.222656h-15v-13.671875c0-13.515625-1.824219-26.914062-5.429687-39.824219l14.445312-4.035156c3.972656 14.222656 5.984375 28.980469 5.984375 43.859375zm-23.28125-62.566406c-1.566406-4.46875-3.371094-8.917969-5.367187-13.21875l13.609374-6.308594c2.195313 4.742188 4.1875 9.640625 5.910157 14.566406zm-9.644531-21.71875c-2.261719-4.160156-4.757813-8.261719-7.414063-12.191406l12.425781-8.402344c2.925782 4.328125 5.671876 8.84375 8.164063 13.425781zm0 0" fill="#fff"/><path d="m262.75 358.722656v-15c21.023438 0 41.347656-4.332031 60.40625-12.875l6.136719 13.6875c-21.003907 9.414063-43.390625 14.1875-66.542969 14.1875zm75.960938-18.777344-7-13.265624c4.1875-2.210938 8.320312-4.65625 12.28125-7.261719l8.246093 12.53125c-4.363281 2.871093-8.914062 5.5625-13.527343 7.996093zm22.089843-14.03125-9.027343-11.980468c3.785156-2.851563 7.480468-5.921875 10.976562-9.125l10.132812 11.0625c-3.851562 3.523437-7.917968 6.902344-12.082031 10.042968zm0 0" fill="#fff"/><path d="m267.601562 182.460938c-2.5625-9.453126-6.078124-18.671876-10.453124-27.394532l13.410156-6.722656c4.820312 9.617188 8.699218 19.773438 11.519531 30.191406zm-14.988281-35.753907c-2.390625-4.085937-5.011719-8.105469-7.796875-11.949219l12.152344-8.796874c3.066406 4.238281 5.957031 8.667968 8.589844 13.167968zm-13.621093-19.476562c-3.011719-3.644531-6.246094-7.199219-9.609376-10.566407l10.605469-10.605468c3.699219 3.699218 7.253907 7.605468 10.566407 11.617187zm0 0" fill="#fff"/><path d="m232.984375 481.882812h-15v-28.929687h15zm0-38.925781h-15v-15h15zm0-25h-15v-15h15zm0 0" fill="#fff"/></svg>