<svg height="512pt" viewBox="-76 0 512 512.001" width="512pt" xmlns="http://www.w3.org/2000/svg"><path d="m152.808594 59.902344h-83.003906l-4.828126-26.203125v-26.199219h92.664063v26.199219zm0 0" fill="#ffb655"/><path d="m164.484375 180.28125v-70.191406h18.167969v-50.1875h-142.691406v50.1875h18.164062v70.191406c-19.769531 19.769531-30.855469 30.855469-50.625 50.625v254.738281c7.359375 7.355469 11.484375 11.484375 18.84375 18.839844h169.921875c7.359375-7.355469 11.484375-11.484375 18.84375-18.839844v-254.738281zm0 0" fill="#bdfdff"/><path d="m210.109375 459.785156c0 10.882813-8.820313 19.703125-19.703125 19.703125-10.878906 0-19.699219-8.820312-19.699219-19.703125 0-10.878906 8.820313-19.699218 19.699219-19.699218 10.882812 0 19.703125 8.820312 19.703125 19.699218zm0 0" fill="#9bc9ff"/><path d="m190.40625 425.664062c0 10.882813-8.820312 19.703126-19.699219 19.703126-10.882812 0-19.703125-8.820313-19.703125-19.703126 0-10.878906 8.820313-19.699218 19.703125-19.699218 10.878907 0 19.699219 8.820312 19.699219 19.699218zm0 0" fill="#9bc9ff"/><path d="m210.109375 391.550781c0 10.878907-8.820313 19.699219-19.703125 19.699219-10.878906 0-19.699219-8.820312-19.699219-19.699219 0-10.882812 8.820313-19.703125 19.699219-19.703125 10.882812 0 19.703125 8.820313 19.703125 19.703125zm0 0" fill="#9bc9ff"/><path d="m190.40625 357.429688c0 10.878906-8.820312 19.699218-19.699219 19.699218-10.882812 0-19.703125-8.820312-19.703125-19.699218 0-10.882813 8.820313-19.703126 19.703125-19.703126 10.878907 0 19.699219 8.820313 19.699219 19.703126zm0 0" fill="#9bc9ff"/><g fill="#ffedcf"><path d="m71.902344 459.785156c0 10.882813-8.820313 19.703125-19.699219 19.703125-10.882813 0-19.703125-8.820312-19.703125-19.703125 0-10.878906 8.820312-19.699218 19.703125-19.699218 10.878906 0 19.699219 8.820312 19.699219 19.699218zm0 0"/><path d="m111.304688 459.785156c0 10.882813-8.820313 19.703125-19.703126 19.703125-10.878906 0-19.699218-8.820312-19.699218-19.703125 0-10.878906 8.820312-19.699218 19.699218-19.699218 10.882813 0 19.703126 8.820312 19.703126 19.699218zm0 0"/><path d="m150.707031 459.785156c0 10.882813-8.820312 19.703125-19.699219 19.703125-10.882812 0-19.703124-8.820312-19.703124-19.703125 0-10.878906 8.820312-19.699218 19.703124-19.699218 10.878907 0 19.699219 8.820312 19.699219 19.699218zm0 0"/><path d="m190.109375 459.785156c0 10.882813-8.820313 19.703125-19.703125 19.703125-10.878906 0-19.699219-8.820312-19.699219-19.703125 0-10.878906 8.820313-19.699218 19.699219-19.699218 10.882812 0 19.703125 8.820312 19.703125 19.699218zm0 0"/><path d="m91.605469 425.664062c0 10.882813-8.820313 19.703126-19.703125 19.703126-10.878906 0-19.699219-8.820313-19.699219-19.703126 0-10.878906 8.820313-19.699218 19.699219-19.699218 10.882812 0 19.703125 8.820312 19.703125 19.699218zm0 0"/><path d="m131.007812 425.664062c0 10.882813-8.824218 19.703126-19.703124 19.703126-10.878907 0-19.703126-8.820313-19.703126-19.703126 0-10.878906 8.824219-19.699218 19.703126-19.699218 10.878906 0 19.703124 8.820312 19.703124 19.699218zm0 0"/><path d="m170.40625 425.664062c0 10.882813-8.820312 19.703126-19.699219 19.703126-10.882812 0-19.703125-8.820313-19.703125-19.703126 0-10.878906 8.820313-19.699218 19.703125-19.699218 10.878907 0 19.699219 8.820312 19.699219 19.699218zm0 0"/><path d="m71.902344 391.550781c0 10.878907-8.820313 19.699219-19.699219 19.699219-10.882813 0-19.703125-8.820312-19.703125-19.699219 0-10.882812 8.820312-19.703125 19.703125-19.703125 10.878906 0 19.699219 8.820313 19.699219 19.703125zm0 0"/><path d="m111.304688 391.550781c0 10.878907-8.820313 19.699219-19.703126 19.699219-10.878906 0-19.699218-8.820312-19.699218-19.699219 0-10.882812 8.820312-19.703125 19.699218-19.703125 10.882813 0 19.703126 8.820313 19.703126 19.703125zm0 0"/><path d="m150.707031 391.550781c0 10.878907-8.820312 19.699219-19.699219 19.699219-10.882812 0-19.703124-8.820312-19.703124-19.699219 0-10.882812 8.820312-19.703125 19.703124-19.703125 10.878907 0 19.699219 8.820313 19.699219 19.703125zm0 0"/><path d="m190.109375 391.550781c0 10.878907-8.820313 19.699219-19.703125 19.699219-10.878906 0-19.699219-8.820312-19.699219-19.699219 0-10.882812 8.820313-19.703125 19.699219-19.703125 10.882812 0 19.703125 8.820313 19.703125 19.703125zm0 0"/><path d="m91.605469 357.429688c0 10.878906-8.820313 19.699218-19.703125 19.699218-10.878906 0-19.699219-8.820312-19.699219-19.699218 0-10.882813 8.820313-19.703126 19.699219-19.703126 10.882812 0 19.703125 8.820313 19.703125 19.703126zm0 0"/><path d="m131.007812 357.429688c0 10.878906-8.824218 19.699218-19.703124 19.699218-10.878907 0-19.703126-8.820312-19.703126-19.699218 0-10.882813 8.824219-19.703126 19.703126-19.703126 10.878906 0 19.703124 8.820313 19.703124 19.703126zm0 0"/><path d="m170.40625 357.429688c0 10.878906-8.820312 19.699218-19.699219 19.699218-10.882812 0-19.703125-8.820312-19.703125-19.699218 0-10.882813 8.820313-19.703126 19.703125-19.703126 10.878907 0 19.699219 8.820313 19.699219 19.703126zm0 0"/></g><path d="m246.722656 477.835938-10.640625-10.640626c-28.003906-28.003906-28.003906-73.402343 0-101.40625l10.640625-10.640624 10.640625 10.640624c28 28.003907 28 73.402344 0 101.40625zm0 0" fill="#b6e892"/><path d="m246.722656 477.835938 8.964844 8.964843c23.597656 23.597657 61.855469 23.597657 85.457031 0l8.964844-8.964843-8.964844-8.96875c-23.597656-23.597657-61.859375-23.597657-85.457031 0zm0 0" fill="#b6e892"/><path d="m94.972656 7.5h-29.996094v26.199219l4.828126 26.203125h30l-4.832032-26.203125zm0 0" fill="#ff7956"/><path d="m37.5 230.90625 50.625-50.625v-70.191406h-18.164062v-50.1875h-30v50.1875h18.164062v70.191406c-19.769531 19.769531-30.855469 30.855469-50.625 50.625v254.738281l18.84375 18.84375h30l-18.84375-18.84375zm0 0" fill="#9bc9ff"/><path d="m52.5 459.785156c0-7.230468 3.894531-13.550781 9.699219-16.976562-2.929688-1.730469-6.347657-2.722656-9.996094-2.722656-10.882813 0-19.703125 8.820312-19.703125 19.699218 0 10.882813 8.820312 19.703125 19.703125 19.703125 3.648437 0 7.066406-.992187 9.996094-2.722656-5.804688-3.425781-9.699219-9.75-9.699219-16.980469zm0 0" fill="#ffc477"/><path d="m91.902344 459.785156c0-7.230468 3.894531-13.550781 9.703125-16.976562-2.933594-1.730469-6.351563-2.722656-10-2.722656-10.882813 0-19.703125 8.820312-19.703125 19.699218 0 10.882813 8.820312 19.703125 19.703125 19.703125 3.648437 0 7.066406-.992187 10-2.722656-5.808594-3.425781-9.703125-9.75-9.703125-16.980469zm0 0" fill="#ffc477"/><path d="m131.304688 459.785156c0-7.230468 3.894531-13.550781 9.703124-16.976562-2.933593-1.730469-6.351562-2.722656-10-2.722656-10.882812 0-19.703124 8.820312-19.703124 19.699218 0 10.882813 8.820312 19.703125 19.703124 19.703125 3.648438 0 7.066407-.992187 10-2.722656-5.808593-3.425781-9.703124-9.75-9.703124-16.980469zm0 0" fill="#ffc477"/><path d="m170.707031 459.785156c0-7.230468 3.894531-13.550781 9.699219-16.976562-2.929688-1.730469-6.347656-2.722656-10-2.722656-10.878906 0-19.699219 8.820312-19.699219 19.699218 0 10.882813 8.820313 19.703125 19.699219 19.703125 3.652344 0 7.070312-.992187 10-2.722656-5.804688-3.425781-9.699219-9.75-9.699219-16.980469zm0 0" fill="#ffc477"/><path d="m72.199219 425.664062c0-7.230468 3.894531-13.550781 9.703125-16.976562-2.929688-1.730469-6.351563-2.722656-10-2.722656-10.878906 0-19.699219 8.820312-19.699219 19.699218 0 10.882813 8.820313 19.703126 19.699219 19.703126 3.648437 0 7.070312-.992188 10-2.722657-5.808594-3.425781-9.703125-9.75-9.703125-16.980469zm0 0" fill="#ffc477"/><path d="m111.601562 425.664062c0-7.230468 3.894532-13.550781 9.703126-16.976562-2.929688-1.730469-6.351563-2.722656-10-2.722656-10.878907 0-19.703126 8.820312-19.703126 19.699218 0 10.882813 8.824219 19.703126 19.703126 19.703126 3.648437 0 7.070312-.992188 10-2.722657-5.808594-3.425781-9.703126-9.75-9.703126-16.980469zm0 0" fill="#ffc477"/><path d="m151.003906 425.664062c0-7.230468 3.898438-13.550781 9.703125-16.976562-2.929687-1.730469-6.347656-2.722656-10-2.722656-10.878906 0-19.699219 8.820312-19.699219 19.699218 0 10.882813 8.820313 19.703126 19.699219 19.703126 3.652344 0 7.070313-.992188 10-2.722657-5.804687-3.425781-9.703125-9.75-9.703125-16.980469zm0 0" fill="#ffc477"/><path d="m52.5 391.550781c0-7.230469 3.894531-13.550781 9.699219-16.980469-2.929688-1.730468-6.347657-2.722656-9.996094-2.722656-10.882813 0-19.703125 8.820313-19.703125 19.703125 0 10.878907 8.820312 19.699219 19.703125 19.699219 3.648437 0 7.066406-.992188 9.996094-2.722656-5.804688-3.425782-9.699219-9.746094-9.699219-16.976563zm0 0" fill="#ffc477"/><path d="m91.902344 391.550781c0-7.230469 3.894531-13.550781 9.703125-16.980469-2.933594-1.730468-6.351563-2.722656-10-2.722656-10.882813 0-19.703125 8.820313-19.703125 19.703125 0 10.878907 8.820312 19.699219 19.703125 19.699219 3.648437 0 7.066406-.992188 10-2.722656-5.808594-3.425782-9.703125-9.746094-9.703125-16.976563zm0 0" fill="#ffc477"/><path d="m131.304688 391.550781c0-7.230469 3.894531-13.550781 9.703124-16.980469-2.933593-1.730468-6.351562-2.722656-10-2.722656-10.882812 0-19.703124 8.820313-19.703124 19.703125 0 10.878907 8.820312 19.699219 19.703124 19.699219 3.648438 0 7.066407-.992188 10-2.722656-5.808593-3.425782-9.703124-9.746094-9.703124-16.976563zm0 0" fill="#ffc477"/><path d="m170.707031 391.550781c0-7.230469 3.894531-13.550781 9.699219-16.980469-2.929688-1.730468-6.347656-2.722656-10-2.722656-10.878906 0-19.699219 8.820313-19.699219 19.703125 0 10.878907 8.820313 19.699219 19.699219 19.699219 3.652344 0 7.070312-.992188 10-2.722656-5.804688-3.425782-9.699219-9.746094-9.699219-16.976563zm0 0" fill="#ffc477"/><path d="m72.199219 357.429688c0-7.230469 3.894531-13.550782 9.703125-16.980469-2.929688-1.730469-6.351563-2.722657-10-2.722657-10.878906 0-19.699219 8.820313-19.699219 19.703126 0 10.878906 8.820313 19.699218 19.699219 19.699218 3.648437 0 7.070312-.992187 10-2.722656-5.808594-3.425781-9.703125-9.746094-9.703125-16.976562zm0 0" fill="#ffc477"/><path d="m111.601562 357.429688c0-7.230469 3.894532-13.550782 9.703126-16.980469-2.929688-1.730469-6.351563-2.722657-10-2.722657-10.878907 0-19.703126 8.820313-19.703126 19.703126 0 10.878906 8.824219 19.699218 19.703126 19.699218 3.648437 0 7.070312-.992187 10-2.722656-5.808594-3.425781-9.703126-9.746094-9.703126-16.976562zm0 0" fill="#ffc477"/><path d="m151.003906 357.429688c0-7.230469 3.898438-13.550782 9.703125-16.980469-2.929687-1.730469-6.347656-2.722657-10-2.722657-10.878906 0-19.699219 8.820313-19.699219 19.703126 0 10.878906 8.820313 19.699218 19.699219 19.699218 3.652344 0 7.070313-.992187 10-2.722656-5.804687-3.425781-9.703125-9.746094-9.703125-16.976562zm0 0" fill="#ffc477"/><path d="m261.722656 370.554688c-1.371094-1.636719-2.824218-3.226563-4.359375-4.765626l-10.640625-10.640624-10.640625 10.640624c-28.003906 28.003907-28.003906 73.402344 0 101.40625l10.640625 10.640626 10.640625-10.640626c1.535157-1.539062 2.988281-3.128906 4.359375-4.765624-22.191406-26.535157-22.191406-65.339844 0-91.875zm0 0" fill="#95d6a6"/><path d="m285.6875 486.800781-8.96875-8.964843 8.96875-8.96875c7.953125-7.953126 17.570312-13.222657 27.726562-15.816407-19.988281-5.101562-42.078124.171875-57.726562 15.816407l-8.964844 8.96875 8.964844 8.964843c15.648438 15.648438 37.738281 20.917969 57.726562 15.820313-10.15625-2.59375-19.773437-7.867188-27.726562-15.820313zm0 0" fill="#95d6a6"/><path d="m15 234.011719 50.628906-50.621094v-65.800781h45.679688v-15l-63.847656-.003906v-35.1875h127.695312v35.1875h-18.167969v80.804687l50.617188 50.621094v125.289062h15v-131.503906l-50.621094-50.617187v-59.59375h18.171875v-65.1875h-157.695312v65.1875h18.167968v59.59375l-50.628906 50.617187v57.195313h15zm0 0"/><path d="m222.605469 473.6875h-15v8.855469l-14.445313 14.445312h-163.710937c-5.347657-5.355469-9.097657-9.105469-14.449219-14.449219v-177.546874h-15v183.765624l23.230469 23.230469h176.140625l23.234375-23.234375zm0 0"/><path d="m197.609375 391.550781c0-12.796875-8.882813-23.558593-20.804687-26.441406.714843-2.4375 1.101562-5.015625 1.101562-7.679687 0-15-12.203125-27.203126-27.199219-27.203126-7.746093 0-14.742187 3.253907-19.703125 8.464844-4.957031-5.210937-11.957031-8.464844-19.703125-8.464844-7.742187 0-14.742187 3.253907-19.699219 8.464844-4.960937-5.210937-11.957031-8.464844-19.703124-8.464844-14.996094 0-27.199219 12.203126-27.199219 27.203126 0 2.664062.386719 5.242187 1.101562 7.679687-11.921875 2.882813-20.804687 13.644531-20.804687 26.441406s8.882812 23.554688 20.804687 26.441407c-.71875 2.433593-1.101562 5.011718-1.101562 7.675781 0 2.664062.382812 5.242187 1.101562 7.679687-11.921875 2.882813-20.804687 13.644532-20.804687 26.441406 0 14.996094 12.203125 27.199219 27.199218 27.199219 7.746094 0 14.746094-3.253906 19.703126-8.464843 4.960937 5.210937 11.957031 8.464843 19.703124 8.464843 7.742188 0 14.742188-3.253906 19.699219-8.464843 4.960938 5.210937 11.957031 8.464843 19.703125 8.464843 7.742188 0 14.742188-3.253906 19.699219-8.464843 4.960937 5.210937 11.957031 8.464843 19.703125 8.464843 15 0 27.203125-12.203125 27.203125-27.199219 0-12.796874-8.882813-23.558593-20.808594-26.441406.71875-2.4375 1.105469-5.015625 1.105469-7.679687 0-2.664063-.386719-5.242188-1.101562-7.675781 11.921874-2.886719 20.804687-13.644532 20.804687-26.441407zm-86.304687 21.914063c6.726562 0 12.203124 5.472656 12.203124 12.203125 0 6.726562-5.476562 12.199219-12.203124 12.199219-6.726563 0-12.203126-5.472657-12.203126-12.199219 0-6.730469 5.476563-12.203125 12.203126-12.203125zm-19.703126-34.117188c6.730469 0 12.203126 5.472656 12.203126 12.203125 0 6.726563-5.472657 12.199219-12.203126 12.199219-6.726562 0-12.199218-5.472656-12.199218-12.199219 0-6.730469 5.472656-12.203125 12.199218-12.203125zm39.402344 24.402344c-6.726562 0-12.199218-5.472656-12.199218-12.199219 0-6.730469 5.472656-12.203125 12.199218-12.203125 6.730469 0 12.203125 5.472656 12.203125 12.203125 0 6.726563-5.472656 12.199219-12.203125 12.199219zm-59.101562 9.714844c6.726562 0 12.199218 5.472656 12.199218 12.203125 0 6.726562-5.472656 12.199219-12.199218 12.199219-6.726563 0-12.203125-5.472657-12.203125-12.199219 0-6.730469 5.476562-12.203125 12.203125-12.203125zm78.804687 24.402344c-6.726562 0-12.203125-5.472657-12.203125-12.203126 0-6.726562 5.476563-12.199218 12.203125-12.199218 6.726563 0 12.203125 5.472656 12.203125 12.199218 0 6.730469-5.476562 12.203126-12.203125 12.203126zm0-92.640626c6.726563 0 12.203125 5.472657 12.203125 12.203126 0 6.726562-5.476562 12.199218-12.203125 12.199218-6.726562 0-12.203125-5.472656-12.203125-12.199218 0-6.730469 5.476563-12.203126 12.203125-12.203126zm-39.402343 0c6.726562 0 12.203124 5.472657 12.203124 12.203126 0 6.726562-5.476562 12.199218-12.203124 12.199218-6.726563 0-12.203126-5.472656-12.203126-12.199218 0-6.730469 5.476563-12.203126 12.203126-12.203126zm-39.402344 0c6.726562 0 12.199218 5.472657 12.199218 12.203126 0 6.726562-5.472656 12.199218-12.199218 12.199218-6.726563 0-12.203125-5.472656-12.203125-12.199218 0-6.730469 5.476562-12.203126 12.203125-12.203126zm-31.902344 46.324219c0-6.730469 5.472656-12.203125 12.203125-12.203125 6.726563 0 12.199219 5.472656 12.199219 12.203125 0 6.726563-5.472656 12.199219-12.199219 12.199219-6.730469 0-12.203125-5.472656-12.203125-12.199219zm12.203125 80.4375c-6.730469 0-12.203125-5.472656-12.203125-12.203125 0-6.726562 5.472656-12.199218 12.203125-12.199218 6.726563 0 12.199219 5.472656 12.199219 12.199218 0 6.730469-5.472656 12.203125-12.199219 12.203125zm39.398437 0c-6.726562 0-12.199218-5.472656-12.199218-12.203125 0-6.726562 5.472656-12.199218 12.199218-12.199218 6.730469 0 12.203126 5.472656 12.203126 12.199218 0 6.730469-5.472657 12.203125-12.203126 12.203125zm39.402344 0c-6.726562 0-12.199218-5.472656-12.199218-12.203125 0-6.726562 5.472656-12.199218 12.199218-12.199218 6.730469 0 12.203125 5.472656 12.203125 12.199218 0 6.730469-5.472656 12.203125-12.203125 12.203125zm51.605469-12.203125c0 6.730469-5.472656 12.203125-12.203125 12.203125-6.726562 0-12.199219-5.472656-12.199219-12.203125 0-6.726562 5.472657-12.199218 12.199219-12.199218 6.730469 0 12.203125 5.472656 12.203125 12.199218zm-12.203125-56.035156c-6.726562 0-12.199219-5.472656-12.199219-12.199219 0-6.730469 5.472657-12.203125 12.199219-12.203125 6.730469 0 12.203125 5.472656 12.203125 12.203125 0 6.726563-5.472656 12.199219-12.203125 12.199219zm0 0"/><path d="m346.445312 463.5625c-12.828124-12.828125-29.886718-19.894531-48.027343-19.894531-6.261719 0-12.394531.839843-18.265625 2.472656 3.746094-9.296875 5.710937-19.324219 5.710937-29.648437 0-21.15625-8.238281-41.046876-23.199219-56.003907l-15.941406-15.945312-15.945312 15.945312c-30.878906 30.878907-30.878906 81.128907 0 112.007813l5.339844 5.339844-22.898438 22.898437 10.605469 10.605469 22.898437-22.898438 3.664063 3.664063c12.828125 12.828125 29.886719 19.894531 48.03125 19.894531 18.140625 0 35.199219-7.066406 48.027343-19.894531l14.269532-14.269531zm-105.0625-92.46875 5.339844-5.339844 5.335938 5.339844c12.128906 12.125 18.804687 28.25 18.804687 45.398438 0 16.101562-5.886719 31.296874-16.640625 43.128906v-43.128906h-15v43.128906c-22.847656-25.167969-22.128906-64.238282 2.160156-88.527344zm94.457032 110.40625c-9.996094 9.996094-23.285156 15.5-37.421875 15.5-12.210938 0-23.789063-4.105469-33.160157-11.664062h33.15625v-15h-33.15625c9.371094-7.5625 20.949219-11.667969 33.160157-11.667969 14.136719 0 27.425781 5.503906 37.421875 15.503906l3.664062 3.664063zm0 0"/><path d="m73.496094 38.542969-1.019532-5.527344v-18.015625h77.664063v18.015625l-1.019531 5.527344 14.75 2.71875 1.269531-6.875v-34.386719h-107.664063v34.386719l1.265626 6.875zm0 0"/><path d="m197.609375 279.992188h-15v-35.625l-13.074219-13.074219 10.605469-10.605469 17.46875 17.46875zm-35.144531-55.769532-10.605469-10.605468 10.605469-10.605469 10.605468 10.605469zm-17.675782-17.679687-10.605468-10.605469 10.605468-10.605469 10.605469 10.605469zm0 0" fill="#fff"/><path d="m165.304688 92.402344h-23.496094v-15h23.496094zm-33.496094 0h-15v-15h15zm-25 0h-15v-15h15zm0 0" fill="#fff"/></svg>