<svg height="511pt" viewBox="1 -19 511.99963 511" width="511pt" xmlns="http://www.w3.org/2000/svg"><path d="m196.003906 61.980469c-.589844-8.789063.261719-17.609375 2.765625-25.992188l3.886719-13 11.941406 6.445313c7.699219 4.15625 14.539063 9.789062 20.335938 16.425781-6.894532 20.4375-5.683594 44.027344 3.65625 63.347656-.125.050781-.253906.097657-.375.148438-7.058594-20.261719-22.882813-37.800781-42.210938-47.375zm77.40625 47.226562c.125.050781.253906.097657.375.148438 7.058594-20.261719 22.882813-37.800781 42.210938-47.375.589844-8.789063-.261719-17.609375-2.769532-25.992188l-3.886718-13-11.9375 6.445313c-7.699219 4.15625-14.539063 9.789062-20.335938 16.425781 6.894532 20.4375 5.683594 44.027344-3.65625 63.347656zm72.375-17.433593c-9.574218 19.324218-27.109375 35.148437-47.371094 42.210937.050782.121094.097657.25.148438.371094 19.320312-9.335938 42.910156-10.546875 63.347656-3.652344 6.636719-5.796875 12.269532-12.636719 16.425782-20.335937l6.445312-11.941407-13-3.886719c-8.386719-2.507812-17.207031-3.355468-25.996094-2.765624zm-195.699218 38.929687c20.4375-6.894531 44.03125-5.683594 63.351562 3.652344.050781-.121094.09375-.25.148438-.371094-20.261719-7.0625-37.800782-22.886719-47.375-42.210937-8.789063-.589844-17.609376.257812-25.992188 2.765624l-13 3.886719 6.445312 11.941407c4.15625 7.699218 9.792969 14.539062 16.421876 20.335937zm211.824218 42.132813c-20.4375 6.894531-44.027344 5.683593-63.347656-3.65625-.050781.125-.097656.25-.148438.375 20.261719 7.058593 37.796876 22.882812 47.371094 42.207031 8.789063.59375 17.609375-.257813 25.992188-2.765625l13-3.886719-6.441406-11.9375c-4.15625-7.703125-9.792969-14.539063-16.425782-20.335937zm-88.125 21.347656c-.121094.050781-.25.097656-.375.148437 9.339844 19.320313 10.550782 42.910157 3.65625 63.347657 5.796875 6.632812 12.636719 12.269531 20.335938 16.425781l11.9375 6.445312 3.886718-13c2.507813-8.386719 3.359376-17.207031 2.769532-25.996093-19.328125-9.574219-35.152344-27.109376-42.210938-47.371094zm-35.195312.148437c-.125-.050781-.253906-.097656-.375-.148437-7.058594 20.261718-22.882813 37.796875-42.210938 47.371094-.589844 8.789062.261719 17.609374 2.765625 25.992187l3.886719 13 11.941406-6.441406c7.699219-4.15625 14.539063-9.792969 20.335938-16.425781-6.894532-20.4375-5.683594-44.03125 3.65625-63.347657zm-72.378906 17.429688c9.574218-19.324219 27.113281-35.148438 47.375-42.207031-.054688-.125-.097657-.25-.148438-.375-19.320312 9.339843-42.914062 10.550781-63.351562 3.65625-6.632813 5.796874-12.265626 12.632812-16.421876 20.335937l-6.445312 11.9375 13 3.886719c8.386719 2.507812 17.207031 3.359375 25.992188 2.765625zm0 0" fill="#ffb655"/><path d="m384.867188 143.203125c-23.402344-19.050781-59.09375-21.996094-86.304688-8.847656 2.199219 5.371093 3.421875 11.25 3.421875 17.414062 0 6.164063-1.222656 12.039063-3.421875 17.410157 27.210938 13.152343 62.902344 10.203124 86.304688-8.847657l10.523437-8.5625zm0 0" fill="#ffe477"/><path d="m341.066406 54.589844c-30.019531 3.078125-57.339844 26.226562-67.28125 54.765625 11.09375 4.65625 19.972656 13.535156 24.628906 24.628906 28.535157-9.945313 51.6875-37.265625 54.765626-67.28125l1.382812-13.5zm0 0" fill="#ffe477"/><path d="m256 105.785156c6.164062 0 12.039062 1.222656 17.410156 3.421875 13.152344-27.210937 10.207032-62.902343-8.84375-86.304687l-8.566406-10.523438-8.566406 10.523438c-19.050782 23.402344-21.996094 59.09375-8.84375 86.304687 5.371094-2.199219 11.246094-3.421875 17.410156-3.421875zm0 0" fill="#ffe477"/><path d="m238.214844 109.355469c-9.941406-28.539063-37.261719-51.6875-67.28125-54.765625l-13.496094-1.386719 1.382812 13.5c3.078126 30.015625 26.230469 57.335937 54.765626 67.28125 4.65625-11.09375 13.535156-19.972656 24.628906-24.628906zm0 0" fill="#ffe477"/><path d="m210.015625 151.769531c0-6.164062 1.222656-12.042969 3.421875-17.414062-27.210938-13.148438-62.902344-10.203125-86.304688 8.847656l-10.523437 8.566406 10.523437 8.5625c23.402344 19.050781 59.09375 22 86.304688 8.847657-2.199219-5.371094-3.421875-11.246094-3.421875-17.410157zm0 0" fill="#ffe477"/><path d="m213.585938 169.554688c-28.539063 9.941406-51.6875 37.261718-54.765626 67.28125l-1.386718 13.496093 13.5-1.382812c30.015625-3.078125 57.335937-26.230469 67.28125-54.765625-11.09375-4.65625-19.972656-13.539063-24.628906-24.628906zm0 0" fill="#ffe477"/><path d="m256 197.753906c-6.164062 0-12.039062-1.222656-17.410156-3.421875-13.152344 27.207031-10.207032 62.898438 8.84375 86.304688l8.566406 10.523437 8.566406-10.523437c19.050782-23.40625 21.996094-59.097657 8.84375-86.304688-5.371094 2.199219-11.246094 3.421875-17.410156 3.421875zm0 0" fill="#ffe477"/><path d="m353.179688 236.835938c-3.078126-30.019532-26.230469-57.339844-54.765626-67.28125-4.65625 11.09375-13.535156 19.972656-24.628906 24.628906 9.941406 28.535156 37.261719 51.6875 67.28125 54.765625l13.496094 1.382812zm0 0" fill="#ffe477"/><path d="m301.984375 151.769531c0 25.394531-20.589844 45.984375-45.984375 45.984375s-45.984375-20.589844-45.984375-45.984375c0-25.398437 20.589844-45.984375 45.984375-45.984375s45.984375 20.585938 45.984375 45.984375zm0 0" fill="#ee8700"/><path d="m286.785156 151.769531c0 9.820313-7.964844 17.785157-17.785156 17.785157-9.824219 0-17.785156-7.964844-17.785156-17.785157 0-9.824219 7.960937-17.785156 17.785156-17.785156 9.820312 0 17.785156 7.960937 17.785156 17.785156zm0 0" fill="#cd2a00"/><path d="m273.785156 151.769531c0 9.820313-7.960937 17.785157-17.785156 17.785157s-17.785156-7.964844-17.785156-17.785157c0-9.824219 7.960937-17.785156 17.785156-17.785156s17.785156 7.960937 17.785156 17.785156zm0 0" fill="#828187"/><path d="m29.234375 445.128906c-28.953125-28.949218-28.953125-75.894531 0-104.847656l88.367187-88.367188 104.847657 104.847657-88.367188 88.367187c-28.953125 28.953125-75.898437 28.953125-104.847656 0zm0 0" fill="#ff7956"/><path d="m482.765625 445.128906c28.953125-28.949218 28.953125-75.894531 0-104.847656l-88.367187-88.367188-104.847657 104.847657 88.367188 88.367187c28.953125 28.953125 75.894531 28.953125 104.847656 0zm0 0" fill="#44ffe8"/><g fill="#ffb655"><path d="m328.558594 169.179688c2.199218-5.371094 3.421875-11.246094 3.421875-17.410157 0-6.164062-1.222657-12.042969-3.421875-17.414062 6.652344-3.214844 13.8125-5.464844 21.171875-6.757813-17.238281-3.023437-35.59375-.769531-51.167969 6.757813 2.199219 5.371093 3.421875 11.25 3.421875 17.414062 0 6.164063-1.222656 12.039063-3.421875 17.410157 15.574219 7.527343 33.929688 9.78125 51.167969 6.757812-7.359375-1.289062-14.519531-3.542969-21.171875-6.757812zm0 0"/><path d="m303.785156 109.355469c8.011719-23.003907 27.320313-42.507813 50.230469-50.820313l.546875-5.332031-13.496094 1.386719c-30.019531 3.078125-57.339844 26.226562-67.28125 54.765625 11.09375 4.65625 19.972656 13.535156 24.628906 24.628906 8.019532-2.796875 15.617188-6.964844 22.460938-12.179687-4.621094-5.371094-10.460938-9.667969-17.089844-12.449219zm0 0"/><path d="m271 32.292969c-1.890625-3.296875-4.035156-6.441407-6.433594-9.390625l-8.566406-10.523438-8.566406 10.523438c-19.050782 23.402344-21.996094 59.097656-8.84375 86.304687 5.371094-2.199219 11.246094-3.421875 17.410156-3.421875 4.042969 0 7.960938.527344 11.691406 1.507813-10.546875-23.472657-9.449218-52.738281 3.308594-75zm0 0"/><path d="m271 108.296875c.8125.28125 1.617188.585937 2.410156.910156.308594-.632812.605469-1.269531.894532-1.914062-1.121094.292969-2.222657.628906-3.304688 1.003906zm0 0"/><path d="m188.816406 66.703125-.835937-8.167969c-5.507813-1.996094-11.226563-3.347656-17.046875-3.945312l-13.496094-1.382813 1.382812 13.496094c3.078126 30.019531 26.230469 57.339844 54.765626 67.28125 1.871093-4.460937 4.429687-8.5625 7.535156-12.175781-17.503906-13.339844-30.089844-33.523438-32.304688-55.105469zm0 0"/><path d="m157.128906 160.335938-10.523437-8.566407 10.523437-8.566406c10.007813-8.144531 22.261719-13.34375 35.136719-15.601563-22.753906-3.992187-47.449219 1.207032-65.132813 15.601563l-10.523437 8.566406 10.523437 8.566407c17.683594 14.394531 42.378907 19.59375 65.132813 15.601562-12.875-2.257812-25.128906-7.457031-35.136719-15.601562zm0 0"/><path d="m188.816406 236.835938c2.214844-21.582032 14.800782-41.765626 32.304688-55.105469-3.105469-3.613281-5.664063-7.714844-7.535156-12.175781-28.535157 9.941406-51.6875 37.261718-54.765626 67.28125l-1.382812 13.496093 13.496094-1.382812c5.820312-.597657 11.539062-1.949219 17.046875-3.945313zm0 0"/><path d="m274.304688 196.246094c-.289063-.644532-.585938-1.28125-.894532-1.914063-.792968.324219-1.597656.628907-2.410156.910157 1.082031.371093 2.183594.707031 3.304688 1.003906zm0 0"/><path d="m267.691406 196.246094c-3.730468.980468-7.648437 1.507812-11.691406 1.507812-6.164062 0-12.039062-1.222656-17.410156-3.421875-13.152344 27.207031-10.207032 62.898438 8.84375 86.304688l8.566406 10.523437 8.566406-10.523437c2.398438-2.949219 4.542969-6.09375 6.433594-9.390625-12.757812-22.265625-13.855469-51.527344-3.308594-75zm0 0"/><path d="m303.785156 194.183594c6.628906-2.785156 12.46875-7.078125 17.089844-12.453125-6.84375-5.210938-14.441406-9.378907-22.460938-12.175781-4.65625 11.09375-13.535156 19.972656-24.628906 24.628906 9.941406 28.535156 37.261719 51.6875 67.28125 54.765625l13.496094 1.382812-.546875-5.328125c-22.910156-8.3125-42.21875-27.816406-50.230469-50.820312zm0 0"/></g><path d="m240.015625 151.769531c0-20.144531 12.953125-37.261719 30.984375-43.480469-4.703125-1.625-9.75-2.503906-15-2.503906-25.394531 0-45.984375 20.585938-45.984375 45.984375 0 25.394531 20.589844 45.984375 45.984375 45.984375 5.25 0 10.296875-.882812 15-2.503906-18.03125-6.21875-30.984375-23.335938-30.984375-43.480469zm0 0" fill="#ff3501"/><path d="m59.230469 445.128906c-28.953125-28.949218-28.953125-75.894531 0-104.847656l73.371093-73.371094-15-14.996094-88.367187 88.367188c-28.953125 28.953125-28.953125 75.898438 0 104.847656 18.3125 18.316406 43.820313 25.042969 67.421875 20.191406-13.714844-2.820312-26.785156-9.550781-37.425781-20.191406zm0 0" fill="#ff3f62"/><path d="m407.917969 445.128906-88.371094-88.367187 89.847656-89.851563-14.996093-14.996094-104.847657 104.847657 88.367188 88.367187c18.3125 18.316406 43.820312 25.042969 67.421875 20.191406-13.710938-2.820312-26.78125-9.550781-37.421875-20.191406zm0 0" fill="#57a4ff"/><path d="m87.421875 271.488281 10.605469 10.605469 19.574218-19.574219 94.242188 94.242188-83.066406 83.066406c-26.042969 26.042969-68.195313 26.046875-94.242188 0-26.042968-26.046875-26.046875-68.195313 0-94.242187l49.351563-49.351563-10.605469-10.605469-49.351562 49.351563c-31.90625 31.90625-31.90625 83.546875 0 115.453125 31.832031 31.832031 83.621093 31.832031 115.453124 0l93.671876-93.671875-115.453126-115.453125zm0 0"/><path d="m488.070312 334.980469-93.671874-93.671875-42.285157 42.28125 10.609375 10.605468 31.675782-31.675781 83.0625 83.066407c26.046874 26.042968 26.046874 68.195312 0 94.242187-26.039063 26.042969-68.195313 26.046875-94.238282 0l-83.066406-83.066406 48.421875-48.425781-10.605469-10.605469-59.027344 59.03125 93.671876 93.671875c31.832031 31.828125 83.621093 31.832031 115.453124 0 31.90625-31.90625 31.90625-83.546875 0-115.453125zm0 0"/><path d="m81.65625 449.347656c-15.128906 0-29.351562-5.894531-40.050781-16.589844l10.605469-10.605468c7.867187 7.863281 18.324218 12.195312 29.445312 12.195312s21.578125-4.332031 29.441406-12.195312l35.34375-35.339844 10.605469 10.605469-35.339844 35.339843c-10.699219 10.695313-24.921875 16.589844-40.050781 16.589844zm82.460938-59-10.605469-10.605468 10.605469-10.605469 10.605468 10.605469zm17.679687-17.679687-10.609375-10.605469 10.605469-10.605469 10.609375 10.605469zm0 0" fill="#fff"/><path d="m430.34375 449.347656c-15.128906 0-29.355469-5.894531-40.054688-16.589844l10.609376-10.605468c7.863281 7.863281 18.320312 12.195312 29.441406 12.195312 11.125 0 21.582031-4.332031 29.445312-12.195312 5.476563-5.476563 9.300782-12.339844 11.066406-19.855469l14.601563 3.425781c-2.402344 10.234375-7.609375 19.585938-15.0625 27.035156-10.695313 10.695313-24.921875 16.589844-40.046875 16.589844zm56.59375-55.03125-14.992188-.40625c.007813-.402344.015626-.800781.015626-1.203125 0-3.859375-.527344-7.6875-1.570313-11.386719l14.433594-4.074218c1.417969 5.023437 2.136719 10.226562 2.136719 15.460937-.003907.535157-.007813 1.074219-.023438 1.609375zm-19.664062-20.851562c-1.949219-3.753906-4.46875-7.183594-7.484376-10.203125l10.605469-10.605469c4.101563 4.101562 7.53125 8.777344 10.1875 13.886719zm0 0" fill="#fff"/><path d="m293.105469 199.488281 10.609375-10.605469 29.378906 29.382813-10.605469 10.605469zm0 0" fill="#fff"/><path d="m293.113281 104.066406 29.382813-29.378906 10.605468 10.605469-29.382812 29.378906zm0 0" fill="#fff"/><path d="m315.980469 144.269531h41.550781v15h-41.550781zm0 0" fill="#fff"/><path d="m375.082031 175.445312c10.007813-4.980468 13.527344-8.488281 32.1875-23.675781-18.71875-15.238281-22.21875-18.71875-32.183593-23.679687 7.25-8.328125 9.15625-12.871094 20.667968-34.207032-23.085937-6.90625-27.742187-8.808593-38.804687-9.578124 3.523437-10.496094 3.539062-15.335938 6.015625-39.5-24.007813 2.460937-28.945313 2.472656-39.5 6.015624-.769532-11.054687-2.664063-15.6875-9.574219-38.804687-21.363281 11.527344-25.894531 13.429687-34.210937 20.667969-4.933594-9.910156-8.339844-13.34375-23.679688-32.183594-15.363281 18.875-18.761719 22.304688-23.675781 32.183594-8.363281-7.277344-12.992188-9.21875-34.214844-20.667969-6.910156 23.125-8.804687 27.75-9.574219 38.804687-10.566406-3.546874-15.535156-3.558593-39.5-6.015624 2.484375 24.214843 2.503906 29.039062 6.015625 39.5-11.058593.769531-15.699219 2.667968-38.804687 9.578124 11.527344 21.359376 13.429687 25.890626 20.667968 34.207032-9.953124 4.953125-13.449218 8.429687-32.183593 23.679687 19.070312 15.523438 22.371093 18.792969 32.183593 23.675781-7.277343 8.363282-9.21875 12.992188-20.667968 34.210938 23.128906 6.914062 27.816406 8.824219 38.800781 9.585938-3.515625 10.476562-3.53125 15.289062-6.011719 39.488281 23.957032-2.457031 28.929688-2.46875 39.5-6.015625.769532 11.058594 2.664063 15.6875 9.574219 38.808594 21.246094-11.464844 25.855469-13.398438 34.214844-20.667969 4.933593 9.914062 8.347656 13.347656 23.675781 32.179687 15.289062-18.78125 18.730469-22.246094 23.675781-32.179687 8.363281 7.273437 12.976563 9.207031 34.214844 20.667969 6.914063-23.128907 8.804687-27.753907 9.574219-38.808594 10.542968 3.539062 15.464844 3.550781 39.5 6.015625-2.457032-23.953125-2.46875-28.921875-6.011719-39.488281 10.988281-.765626 15.683594-2.671876 38.800781-9.585938-11.542968-21.386719-13.445312-25.90625-20.671875-34.210938zm8.429688-23.675781-3.378907 2.75c-19.160156 15.59375-48.050781 19.558594-72.308593 10.464844 1.082031-4.230469 1.65625-8.65625 1.65625-13.214844 0-4.558593-.578125-8.988281-1.65625-13.214843 24.257812-9.09375 53.144531-5.132813 72.308593 10.464843zm-9.707031-48.796875c-2.574219 4.765625-5.789063 11.421875-13.84375 19.304688-7.875-2.214844-16.125-3.378906-24.421876-3.457032 5.808594-5.917968 10.824219-12.574218 14.828126-19.710937 11.195312-.121094 18.101562 2.269531 23.4375 3.863281zm-31.972657-40.921875 4.332031-.445312-.445312 4.332031c-2.519531 24.582031-20.152344 47.820312-43.75 58.539062-4.570312-7.671874-11.003906-14.105468-18.675781-18.675781 10.714843-23.597656 33.953125-41.230469 58.539062-43.75zm-85.832031 128.203125c-21.21875 0-38.484375-17.265625-38.484375-38.484375 0-21.222656 17.265625-38.484375 38.484375-38.484375s38.484375 17.261719 38.484375 38.484375c0 21.21875-17.265625 38.484375-38.484375 38.484375zm48.796875-156.289062c1.558594 5.214844 3.984375 12.164062 3.859375 23.4375-7.136719 4.003906-13.789062 9.019531-19.707031 14.824218-.082031-8.292968-1.242188-16.542968-3.457031-24.421874 7.765624-7.9375 14.246093-11.109376 19.304687-13.839844zm-51.546875-6.328125 2.75-3.378907 2.75 3.378907c15.59375 19.160156 19.558594 48.046875 10.464844 72.304687-4.230469-1.078125-8.65625-1.65625-13.214844-1.65625s-8.988281.578125-13.214844 1.65625c-9.097656-24.257812-5.132812-53.144531 10.464844-72.304687zm-46.046875 6.328125c4.804687 2.59375 11.425781 5.789062 19.304687 13.84375-2.214843 7.875-3.375 16.125-3.453124 24.417968-5.921876-5.804687-12.578126-10.820312-19.710938-14.824218-.125-11.195313 2.265625-18.113282 3.859375-23.4375zm-37.035156 28.085937c24.582031 2.519531 47.824219 20.152344 58.539062 43.75-7.671875 4.570313-14.105469 11.003907-18.675781 18.675781-23.59375-10.71875-41.230469-33.957031-43.75-58.539062l-.445312-4.332031zm-31.972657 40.921875c5.195313-1.554687 12.152344-3.984375 23.4375-3.859375 4.003907 7.132813 9.015626 13.789063 14.824219 19.707031-8.292969.078126-16.542969 1.242188-24.417969 3.457032-7.929687-7.757813-11.097656-14.21875-13.84375-19.304688zm-9.707031 48.796875 3.378907-2.75c19.160156-15.597656 48.046874-19.5625 72.304687-10.464843-1.078125 4.230468-1.652344 8.65625-1.652344 13.214843 0 4.558594.574219 8.984375 1.652344 13.214844-24.257813 9.09375-53.144531 5.128906-72.304687-10.464844zm9.707031 48.796875c2.570313-4.765625 5.785157-11.425781 13.847657-19.308594 7.878906 2.214844 16.128906 3.371094 24.421875 3.453126-5.8125 5.917968-10.828125 12.578124-14.832032 19.714843-11.195312.121094-18.113281-2.269531-23.4375-3.859375zm31.972657 40.921875-4.332031.445313.445312-4.335938c2.519531-24.582031 20.152344-47.820312 43.75-58.535156 4.570312 7.667969 11.003906 14.101562 18.675781 18.675781-10.714843 23.59375-33.957031 41.230469-58.539062 43.75zm37.035156 28.085938c-1.570313-5.25-3.984375-12.183594-3.863281-23.441407 7.136718-4 13.792968-9.015624 19.710937-14.824218.082031 8.292968 1.242188 16.542968 3.457031 24.421875-7.765624 7.9375-14.246093 11.113281-19.304687 13.84375zm51.546875 6.328125-2.75 3.375-2.75-3.375c-15.597656-19.160156-19.5625-48.050782-10.464844-72.304688 4.226563 1.078125 8.65625 1.652344 13.214844 1.652344s8.984375-.578125 13.214844-1.652344c9.09375 24.253906 5.128906 53.144532-10.464844 72.304688zm46.046875-6.328125c-4.804687-2.59375-11.425781-5.789063-19.304687-13.84375 2.214843-7.878907 3.375-16.128907 3.457031-24.421875 5.917969 5.808594 12.574219 10.824218 19.707031 14.824218.125 11.285157-2.316406 18.277344-3.859375 23.441407zm37.035156-28.085938c-24.582031-2.519531-47.824219-20.15625-58.539062-43.75 7.671875-4.570312 14.105469-11.003906 18.675781-18.675781 23.59375 10.714844 41.230469 33.953125 43.75 58.535156l.445312 4.335938zm8.535157-37.0625c-4.007813-7.136719-9.023438-13.792969-14.832032-19.714843 8.292969-.078126 16.542969-1.238282 24.417969-3.453126 7.957031 7.777344 11.136719 14.28125 13.851563 19.308594-5.25 1.570313-12.183594 3.984375-23.4375 3.859375zm0 0"/><path d="m256 126.484375c-13.941406 0-25.285156 11.34375-25.285156 25.285156 0 13.941407 11.34375 25.285157 25.285156 25.285157s25.285156-11.34375 25.285156-25.285157c0-13.941406-11.34375-25.285156-25.285156-25.285156zm0 35.570313c-5.671875 0-10.285156-4.613282-10.285156-10.285157s4.613281-10.289062 10.285156-10.289062 10.285156 4.617187 10.285156 10.289062-4.613281 10.285157-10.285156 10.285157zm0 0"/></svg>